<svg width="113" height="38" viewBox="0 0 113 38" fill="none" xmlns="http://www.w3.org/2000/svg">
<g clip-path="url(#clip0)">
<path d="M104.001 1.42968e-06H9.0037C8.65742 1.42968e-06 8.31529 1.42974e-06 7.96993 0.00190143C7.68083 0.00380143 7.39403 0.00932093 7.10216 0.0139664C6.46807 0.0214731 5.83547 0.0775939 5.20985 0.181841C4.58512 0.288357 3.97996 0.489171 3.41483 0.777491C2.8504 1.06825 2.33466 1.44606 1.88633 1.89722C1.43564 2.34711 1.05995 2.86712 0.773721 3.43725C0.486698 4.00626 0.287675 4.61599 0.183527 5.24541C0.0783881 5.87403 0.021812 6.5099 0.0143063 7.14731C0.0055431 7.43858 0.00461768 7.73082 0 8.02212V29.9807C0.00461768 30.2756 0.0055431 30.5614 0.0143063 30.8565C0.0218143 31.4939 0.0783904 32.1297 0.183527 32.7583C0.287388 33.3881 0.486422 33.9981 0.773721 34.5674C1.05982 35.1357 1.43556 35.6536 1.88633 36.1009C2.33296 36.5541 2.84903 36.9322 3.41483 37.2207C3.97995 37.5098 4.58505 37.7118 5.20985 37.82C5.83557 37.9234 6.46811 37.9795 7.10216 37.9879C7.39403 37.9944 7.68083 37.9981 7.96993 37.9981C8.31528 38 8.65744 38 9.0037 38H104.001C104.341 38 104.686 38 105.025 37.9981C105.313 37.9981 105.608 37.9944 105.896 37.9879C106.528 37.98 107.16 37.9238 107.784 37.82C108.411 37.7111 109.018 37.5091 109.586 37.2207C110.151 36.932 110.667 36.554 111.113 36.1009C111.563 35.6518 111.939 35.1343 112.229 34.5674C112.514 33.9977 112.711 33.3877 112.814 32.7583C112.919 32.1296 112.978 31.4939 112.989 30.8565C112.993 30.5614 112.993 30.2756 112.993 29.9807C113 29.6355 113 29.2923 113 28.9416V9.05932C113 8.71142 113 8.36631 112.993 8.02212C112.993 7.73082 112.993 7.43858 112.989 7.14727C112.978 6.5098 112.919 5.87408 112.814 5.24537C112.711 4.61632 112.514 4.00663 112.229 3.43722C111.646 2.29444 110.722 1.36423 109.586 0.777405C109.018 0.48979 108.411 0.28903 107.784 0.181755C107.16 0.0770491 106.528 0.0209088 105.896 0.0138334C105.608 0.00919743 105.313 0.00363043 105.025 0.00177793C104.686 -0.00012207 104.341 -0.00012207 104.001 -0.00012207V1.42968e-06Z" fill="#A6A6A6"/>
<path d="M7.97778 37.1688C7.69007 37.1688 7.40931 37.1651 7.12385 37.1586C6.53251 37.1509 5.94255 37.0991 5.35881 37.0037C4.8145 36.9094 4.28721 36.7339 3.79433 36.4832C3.30597 36.2345 2.86055 35.9084 2.47513 35.5174C2.08413 35.131 1.7586 34.6828 1.51145 34.1907C1.26157 33.6954 1.08865 33.1644 0.998689 32.6164C0.901543 32.0275 0.848982 31.432 0.841461 30.8351C0.835475 30.6348 0.827637 29.9677 0.827637 29.9677V8.02214C0.827637 8.02214 0.835984 7.3653 0.841509 7.17233C0.84871 6.57638 0.900964 5.98184 0.99782 5.39386C1.08794 4.84431 1.26101 4.31183 1.51102 3.81487C1.75726 3.32306 2.08098 2.87459 2.46962 2.48681C2.85783 2.09536 3.30468 1.76759 3.79387 1.51547C4.28561 1.26551 4.8119 1.09131 5.35511 0.998725C5.94077 0.902363 6.53278 0.850265 7.12618 0.842868L7.97825 0.831268H105.024L105.886 0.843333C106.474 0.850363 107.061 0.901996 107.641 0.997794C108.189 1.09154 108.721 1.26695 109.219 1.51825C110.199 2.02636 110.996 2.83022 111.499 3.81719C111.745 4.31072 111.916 4.83885 112.005 5.38366C112.103 5.97646 112.157 6.57567 112.169 7.17651C112.171 7.44555 112.171 7.73454 112.171 8.02214C112.179 8.37839 112.179 8.71747 112.179 9.05934V28.9416C112.179 29.2867 112.179 29.6235 112.171 29.963C112.171 30.272 112.171 30.555 112.168 30.8462C112.157 31.4364 112.103 32.0249 112.006 32.6071C111.918 33.1591 111.746 33.6942 111.496 34.1936C111.248 34.6804 110.924 35.1246 110.537 35.51C110.152 35.9031 109.705 36.2311 109.216 36.4813C108.72 36.734 108.189 36.9101 107.641 37.0037C107.057 37.0996 106.467 37.1514 105.876 37.1586C105.599 37.1651 105.309 37.1688 105.028 37.1688L104.005 37.1707L7.97778 37.1688Z" fill="black"/>
<path d="M23.3898 19.2857C23.3999 18.4927 23.6093 17.7153 23.9984 17.0256C24.3874 16.336 24.9436 15.7565 25.6151 15.3412C25.1885 14.7283 24.6257 14.2239 23.9715 13.8681C23.3173 13.5123 22.5896 13.3148 21.8462 13.2914C20.2605 13.124 18.7232 14.246 17.9151 14.246C17.0914 14.246 15.8473 13.308 14.5076 13.3358C13.641 13.3639 12.7965 13.6175 12.0562 14.0716C11.316 14.5258 10.7054 15.1651 10.2838 15.9273C8.45746 19.1083 9.81971 23.7832 11.5691 26.3545C12.4444 27.6136 13.4674 29.02 14.8059 28.9702C16.1157 28.9155 16.6049 28.1299 18.186 28.1299C19.7523 28.1299 20.2113 28.9702 21.577 28.9385C22.9825 28.9155 23.868 27.6738 24.7126 26.4028C25.3415 25.5056 25.8254 24.5141 26.1464 23.4649C25.3299 23.1174 24.6331 22.5359 24.1428 21.7927C23.6526 21.0495 23.3907 20.1776 23.3898 19.2857Z" fill="white"/>
<path d="M20.8138 11.6004C21.5801 10.6749 21.9577 9.48529 21.8663 8.28427C20.6955 8.40798 19.614 8.97091 18.8373 9.8609C18.4576 10.2957 18.1667 10.8015 17.9814 11.3494C17.7961 11.8974 17.7199 12.4767 17.7573 13.0542C18.3429 13.0603 18.9222 12.9326 19.4517 12.6808C19.9811 12.4289 20.4468 12.0595 20.8138 11.6004Z" fill="white"/>
<path d="M39.9531 25.7827H35.4833L34.4098 28.9713H32.5166L36.7503 17.1742H38.7173L42.9511 28.9713H41.0255L39.9531 25.7827ZM35.9462 24.3113H39.4892L37.7426 19.1364H37.6938L35.9462 24.3113Z" fill="white"/>
<path d="M52.0837 24.6713C52.0837 27.3441 50.6617 29.0613 48.5158 29.0613C47.9722 29.0899 47.4316 28.9639 46.9558 28.6978C46.4801 28.4317 46.0885 28.0362 45.8258 27.5565H45.7852V31.8167H44.0303V20.3703H45.729V21.8009H45.7612C46.036 21.3235 46.4342 20.93 46.9136 20.6623C47.3929 20.3945 47.9355 20.2625 48.4835 20.2803C50.6533 20.2803 52.0837 22.0059 52.0837 24.6713ZM50.2799 24.6713C50.2799 22.9299 49.3854 21.7851 48.0206 21.7851C46.6797 21.7851 45.7778 22.954 45.7778 24.6713C45.7778 26.4043 46.6797 27.5649 48.0206 27.5649C49.3854 27.5649 50.2799 26.4284 50.2799 24.6713Z" fill="white"/>
<path d="M61.5002 24.6713C61.5002 27.3441 60.0782 29.0613 57.9323 29.0613C57.3887 29.0899 56.8481 28.9639 56.3723 28.6978C55.8966 28.4317 55.505 28.0361 55.2423 27.5565H55.2017V31.8167H53.4468V20.3703H55.1454V21.8009H55.1777C55.4525 21.3235 55.8507 20.93 56.3301 20.6623C56.8094 20.3945 57.352 20.2625 57.9 20.2803C60.0699 20.2803 61.5002 22.0059 61.5002 24.6713ZM59.6964 24.6713C59.6964 22.9299 58.8019 21.7851 57.4371 21.7851C56.0962 21.7851 55.1943 22.954 55.1943 24.6713C55.1943 26.4043 56.0962 27.5649 57.4371 27.5649C58.8019 27.5649 59.6964 26.4284 59.6964 24.6713H59.6964Z" fill="white"/>
<path d="M67.7129 25.6843C67.843 26.8542 68.9726 27.6223 70.5164 27.6223C71.9955 27.6223 73.0597 26.8542 73.0597 25.7993C73.0597 24.8837 72.4179 24.3354 70.8981 23.9596L69.3784 23.5913C67.2251 23.0681 66.2255 22.055 66.2255 20.4111C66.2255 18.3756 67.9887 16.9775 70.4924 16.9775C72.9703 16.9775 74.6689 18.3756 74.7261 20.4111H72.9546C72.8485 19.2338 71.8812 18.5231 70.4675 18.5231C69.0538 18.5231 68.0864 19.2421 68.0864 20.2886C68.0864 21.1226 68.7043 21.6134 70.2157 21.9891L71.5077 22.3082C73.9136 22.8807 74.9133 23.8529 74.9133 25.5785C74.9133 27.7856 73.1657 29.1679 70.3863 29.1679C67.7858 29.1679 66.0299 27.8181 65.9165 25.6843L67.7129 25.6843Z" fill="white"/>
<path d="M78.707 18.3348V20.3703H80.3328V21.7684H78.707V26.51C78.707 27.2467 79.0325 27.5899 79.7472 27.5899C79.9402 27.5865 80.1329 27.5729 80.3245 27.5491V28.9388C80.0032 28.9992 79.6766 29.0266 79.3497 29.0205C77.6188 29.0205 76.9438 28.3664 76.9438 26.6983V21.7684H75.7007V20.3703H76.9438V18.3348H78.707Z" fill="white"/>
<path d="M81.2734 24.6713C81.2734 21.9651 82.8577 20.2645 85.3283 20.2645C87.8071 20.2645 89.384 21.965 89.384 24.6713C89.384 27.3849 87.8154 29.078 85.3283 29.078C82.842 29.078 81.2734 27.3849 81.2734 24.6713ZM87.5959 24.6713C87.5959 22.8149 86.7502 21.7192 85.3282 21.7192C83.9062 21.7192 83.0615 22.8232 83.0615 24.6713C83.0615 26.5351 83.9062 27.6224 85.3282 27.6224C86.7502 27.6224 87.5958 26.5351 87.5958 24.6713H87.5959Z" fill="white"/>
<path d="M90.8374 20.3703H92.5112V21.8342H92.5518C92.665 21.377 92.9313 20.9729 93.3058 20.6899C93.6803 20.407 94.1402 20.2623 94.6082 20.2803C94.8105 20.2796 95.0121 20.3017 95.2095 20.3461V21.9975C94.9542 21.919 94.6878 21.883 94.421 21.8908C94.166 21.8804 93.9119 21.9256 93.6759 22.0234C93.44 22.1211 93.2279 22.2691 93.0542 22.4571C92.8804 22.6451 92.7492 22.8687 92.6695 23.1125C92.5898 23.3563 92.5634 23.6146 92.5923 23.8697V28.9713H90.8374L90.8374 20.3703Z" fill="white"/>
<path d="M103.295 26.4451C103.059 28.0065 101.547 29.078 99.6134 29.078C97.1262 29.078 95.5825 27.4016 95.5825 24.7121C95.5825 22.0142 97.1345 20.2645 99.5396 20.2645C101.905 20.2645 103.392 21.8992 103.392 24.5071V25.1119H97.354V25.2186C97.3262 25.5352 97.3656 25.854 97.4696 26.1541C97.5736 26.4541 97.7399 26.7285 97.9575 26.9589C98.175 27.1893 98.4388 27.3706 98.7313 27.4905C99.0238 27.6105 99.3383 27.6665 99.6539 27.6549C100.069 27.6939 100.485 27.5973 100.841 27.3793C101.196 27.1614 101.473 26.8337 101.628 26.4451L103.295 26.4451ZM97.3623 23.878H101.637C101.652 23.5934 101.609 23.3086 101.511 23.0415C101.412 22.7743 101.259 22.5306 101.062 22.3256C100.865 22.1207 100.628 21.9588 100.366 21.8503C100.104 21.7418 99.8229 21.689 99.5396 21.6951C99.2538 21.6934 98.9705 21.7486 98.7061 21.8576C98.4416 21.9666 98.2013 22.1272 97.9988 22.3302C97.7964 22.5331 97.636 22.7744 97.5267 23.0401C97.4175 23.3058 97.3616 23.5906 97.3623 23.8781V23.878Z" fill="white"/>
<path d="M35.711 8.29446C36.0789 8.2679 36.4481 8.32381 36.792 8.45817C37.1358 8.59254 37.4457 8.80199 37.6993 9.07144C37.953 9.34088 38.144 9.66359 38.2586 10.0163C38.3733 10.369 38.4087 10.7429 38.3623 11.1111C38.3623 12.922 37.3894 13.963 35.711 13.963H33.6758V8.29446H35.711ZM34.5509 13.1613H35.6133C35.8762 13.1771 36.1393 13.1338 36.3834 13.0344C36.6276 12.935 36.8466 12.7821 37.0246 12.5868C37.2026 12.3915 37.3351 12.1588 37.4124 11.9055C37.4897 11.6522 37.5099 11.3847 37.4715 11.1226C37.5071 10.8615 37.4848 10.5957 37.4063 10.3443C37.3279 10.0929 37.1951 9.86202 37.0175 9.66828C36.8399 9.47455 36.6219 9.32273 36.3791 9.22371C36.1364 9.12468 35.8748 9.0809 35.6133 9.09551H34.5509V13.1613Z" fill="white"/>
<path d="M39.3498 11.8221C39.3231 11.541 39.3551 11.2574 39.4437 10.9894C39.5323 10.7214 39.6756 10.4751 39.8644 10.2661C40.0532 10.0571 40.2833 9.89012 40.5401 9.77585C40.7968 9.66159 41.0744 9.60257 41.3551 9.60257C41.6358 9.60257 41.9134 9.66159 42.1701 9.77585C42.4269 9.89012 42.657 10.0571 42.8458 10.2661C43.0346 10.4751 43.1779 10.7214 43.2665 10.9894C43.3551 11.2574 43.3871 11.541 43.3604 11.8221C43.3876 12.1035 43.356 12.3876 43.2677 12.656C43.1793 12.9244 43.036 13.1712 42.8472 13.3806C42.6583 13.59 42.428 13.7573 42.1711 13.8718C41.9141 13.9863 41.6361 14.0455 41.3551 14.0455C41.074 14.0455 40.7961 13.9863 40.5391 13.8718C40.2822 13.7573 40.0519 13.59 39.863 13.3806C39.6741 13.1712 39.5309 12.9244 39.4425 12.656C39.3542 12.3876 39.3226 12.1035 39.3498 11.8221ZM42.4972 11.8221C42.4972 10.8949 42.0831 10.3526 41.3565 10.3526C40.627 10.3526 40.2167 10.8949 40.2167 11.8221C40.2167 12.7568 40.6271 13.2949 41.3565 13.2949C42.0832 13.2949 42.4972 12.7531 42.4972 11.8221H42.4972Z" fill="white"/>
<path d="M48.6823 13.9629H47.8117L46.9329 10.8123H46.8665L45.9914 13.9629H45.1291L43.957 9.68509H44.8082L45.5699 12.9493H45.6326L46.5069 9.68509H47.3119L48.1861 12.9493H48.2525L49.0106 9.68509H49.8497L48.6823 13.9629Z" fill="white"/>
<path d="M50.8535 9.68508H51.6613V10.3646H51.7241C51.8304 10.1206 52.0099 9.91597 52.2373 9.77935C52.4648 9.64274 52.7289 9.58092 52.993 9.60251C53.1999 9.58686 53.4076 9.61824 53.6008 9.69433C53.794 9.77042 53.9677 9.88927 54.1091 10.0421C54.2504 10.1949 54.3558 10.3777 54.4174 10.577C54.4789 10.7764 54.4951 10.9871 54.4648 11.1936V13.9628H53.6256V11.4056C53.6256 10.7181 53.3286 10.3762 52.708 10.3762C52.5675 10.3697 52.4273 10.3937 52.2969 10.4468C52.1666 10.4998 52.0492 10.5806 51.9527 10.6835C51.8563 10.7865 51.7831 10.9092 51.7382 11.0433C51.6933 11.1774 51.6778 11.3196 51.6927 11.4603V13.9629H50.8535L50.8535 9.68508Z" fill="white"/>
<path d="M55.8013 8.01517H56.6405V13.9629H55.8013V8.01517Z" fill="white"/>
<path d="M57.7971 11.8221C57.7703 11.541 57.8023 11.2574 57.891 10.9894C57.9796 10.7214 58.1229 10.475 58.3118 10.266C58.5006 10.057 58.7307 9.89006 58.9875 9.7758C59.2442 9.66153 59.5218 9.60251 59.8025 9.60251C60.0833 9.60251 60.3609 9.66153 60.6176 9.7758C60.8744 9.89006 61.1045 10.057 61.2933 10.266C61.4822 10.475 61.6255 10.7214 61.7141 10.9894C61.8028 11.2574 61.8347 11.541 61.808 11.8221C61.8352 12.1036 61.8036 12.3876 61.7152 12.656C61.6268 12.9244 61.4836 13.1712 61.2947 13.3806C61.1058 13.59 60.8755 13.7573 60.6185 13.8718C60.3615 13.9863 60.0836 14.0455 59.8025 14.0455C59.5215 14.0455 59.2435 13.9863 58.9866 13.8718C58.7296 13.7573 58.4993 13.59 58.3104 13.3806C58.1215 13.1712 57.9783 12.9244 57.8899 12.656C57.8015 12.3876 57.7699 12.1036 57.7971 11.8221ZM60.9444 11.8221C60.9444 10.8949 60.5304 10.3526 59.8037 10.3526C59.0743 10.3526 58.6639 10.8949 58.6639 11.8222C58.6639 12.7569 59.0743 13.2949 59.8037 13.2949C60.5304 13.2949 60.9444 12.7531 60.9444 11.8221H60.9444Z" fill="white"/>
<path d="M62.6982 12.7531C62.6982 11.9831 63.2681 11.5392 64.2798 11.4761L65.4315 11.4093V11.0401C65.4315 10.5882 65.1346 10.3331 64.561 10.3331C64.0926 10.3331 63.768 10.5062 63.6748 10.8086H62.8624C62.9481 10.0738 63.6352 9.60254 64.5998 9.60254C65.6658 9.60254 66.267 10.1364 66.267 11.0401V13.9629H65.4592V13.3617H65.3928C65.258 13.5774 65.0688 13.7532 64.8444 13.8712C64.62 13.9892 64.3685 14.0451 64.1156 14.0334C63.9371 14.052 63.7567 14.0329 63.586 13.9771C63.4153 13.9214 63.2581 13.8302 63.1246 13.7096C62.991 13.589 62.8841 13.4416 62.8107 13.2768C62.7372 13.1121 62.6989 12.9337 62.6982 12.7531ZM65.4315 12.3876V12.0299L64.3932 12.0967C63.8076 12.1362 63.542 12.3366 63.542 12.7137C63.542 13.0987 63.874 13.3227 64.3305 13.3227C64.4643 13.3364 64.5994 13.3228 64.7278 13.2828C64.8562 13.2428 64.9754 13.1772 65.0781 13.09C65.1808 13.0027 65.265 12.8956 65.3258 12.7749C65.3865 12.6543 65.4225 12.5225 65.4315 12.3876Z" fill="white"/>
<path d="M67.3696 11.8221C67.3696 10.4704 68.0603 9.61413 69.1347 9.61413C69.4004 9.60181 69.6642 9.66585 69.8951 9.79875C70.126 9.93165 70.3145 10.1279 70.4386 10.3646H70.5013V8.01517H71.3405V13.9629H70.5364V13.287H70.47C70.3363 13.5221 70.1412 13.716 69.9058 13.8475C69.6704 13.9791 69.4038 14.0433 69.1347 14.0334C68.053 14.0334 67.3696 13.1771 67.3696 11.8221ZM68.2365 11.8221C68.2365 12.7295 68.6616 13.2754 69.3726 13.2754C70.0799 13.2754 70.517 12.7216 70.517 11.8259C70.517 10.9343 70.0753 10.3726 69.3726 10.3726C68.6662 10.3726 68.2365 10.9222 68.2365 11.8221H68.2365Z" fill="white"/>
<path d="M74.8093 11.8221C74.7826 11.541 74.8145 11.2574 74.9031 10.9894C74.9918 10.7214 75.1351 10.4751 75.3239 10.2661C75.5127 10.0571 75.7428 9.89012 75.9995 9.77585C76.2562 9.66159 76.5339 9.60257 76.8146 9.60257C77.0953 9.60257 77.3729 9.66159 77.6296 9.77585C77.8863 9.89012 78.1165 10.0571 78.3053 10.2661C78.4941 10.4751 78.6374 10.7214 78.726 10.9894C78.8146 11.2574 78.8466 11.541 78.8199 11.8221C78.8471 12.1035 78.8155 12.3876 78.7271 12.656C78.6387 12.9244 78.4955 13.1712 78.3067 13.3806C78.1178 13.59 77.8875 13.7573 77.6305 13.8718C77.3736 13.9863 77.0956 14.0455 76.8146 14.0455C76.5335 14.0455 76.2556 13.9863 75.9986 13.8718C75.7416 13.7573 75.5113 13.59 75.3225 13.3806C75.1336 13.1712 74.9904 12.9244 74.902 12.656C74.8136 12.3876 74.7821 12.1035 74.8093 11.8221ZM77.9567 11.8221C77.9567 10.8949 77.5426 10.3526 76.816 10.3526C76.0865 10.3526 75.6762 10.8949 75.6762 11.8221C75.6762 12.7568 76.0865 13.2949 76.816 13.2949C77.5426 13.2949 77.9567 12.7531 77.9567 11.8221Z" fill="white"/>
<path d="M79.9497 9.68508H80.7575V10.3646H80.8203C80.9266 10.1206 81.106 9.91597 81.3335 9.77935C81.561 9.64274 81.8251 9.58092 82.0892 9.60251C82.2961 9.58686 82.5038 9.61824 82.697 9.69433C82.8902 9.77042 83.0639 9.88927 83.2053 10.0421C83.3466 10.1949 83.452 10.3777 83.5136 10.577C83.5751 10.7764 83.5913 10.9871 83.561 11.1936V13.9628H82.7218V11.4056C82.7218 10.7181 82.4248 10.3762 81.8042 10.3762C81.6637 10.3697 81.5235 10.3937 81.3931 10.4468C81.2628 10.4998 81.1453 10.5806 81.0489 10.6835C80.9525 10.7865 80.8793 10.9092 80.8344 11.0433C80.7895 11.1774 80.774 11.3196 80.7889 11.4603V13.9629H79.9497V9.68508Z" fill="white"/>
<path d="M88.2886 8.62006V9.70458H89.2098V10.4157H88.2886V12.6153C88.2886 13.0634 88.4721 13.2597 88.8898 13.2597C88.9968 13.2593 89.1036 13.2528 89.2098 13.2402V13.9434C89.0591 13.9705 88.9064 13.9849 88.7534 13.9865C87.8201 13.9865 87.4485 13.6563 87.4485 12.8315V10.4157H86.7734V9.70454H87.4485V8.62006H88.2886Z" fill="white"/>
<path d="M90.3599 8.01517H91.1917V10.3725H91.2581C91.3696 10.1262 91.554 9.92043 91.786 9.7833C92.018 9.64617 92.2864 9.58434 92.5546 9.60624C92.7604 9.59497 92.9662 9.62954 93.1572 9.70748C93.3482 9.78542 93.5198 9.90481 93.6596 10.0571C93.7995 10.2094 93.9042 10.3909 93.9663 10.5887C94.0285 10.7864 94.0464 10.9955 94.019 11.201V13.9629H93.179V11.4093C93.179 10.726 92.8626 10.38 92.2697 10.38C92.1255 10.3681 91.9804 10.388 91.8446 10.4384C91.7089 10.4888 91.5857 10.5684 91.4837 10.6717C91.3817 10.775 91.3034 10.8995 91.2543 11.0364C91.2051 11.1734 91.1863 11.3195 91.1991 11.4645V13.9629H90.3599L90.3599 8.01517Z" fill="white"/>
<path d="M98.9113 12.8078C98.7973 13.1988 98.5503 13.537 98.2134 13.7632C97.8766 13.9895 97.4714 14.0894 97.0688 14.0454C96.7887 14.0529 96.5103 13.9989 96.2529 13.8872C95.9956 13.7756 95.7655 13.6089 95.5786 13.3989C95.3917 13.1888 95.2525 12.9403 95.1707 12.6707C95.0888 12.401 95.0662 12.1167 95.1046 11.8374C95.0673 11.5573 95.0902 11.2724 95.1719 11.0019C95.2535 10.7315 95.392 10.4818 95.5779 10.2699C95.7638 10.058 95.9928 9.88875 96.2494 9.7736C96.506 9.65845 96.7842 9.60011 97.0651 9.60252C98.2483 9.60252 98.962 10.4157 98.962 11.759V12.0536H95.9594V12.1009C95.9463 12.2579 95.9659 12.4159 96.017 12.5648C96.0681 12.7137 96.1496 12.8503 96.2562 12.9656C96.3628 13.081 96.4922 13.1727 96.6361 13.2348C96.78 13.297 96.9353 13.3282 97.0918 13.3264C97.2926 13.3507 97.496 13.3143 97.6761 13.2219C97.8562 13.1296 98.005 12.9854 98.1035 12.8078L98.9113 12.8078ZM95.9594 11.4292H98.1071C98.1177 11.2857 98.0983 11.1414 98.0502 11.0059C98.0021 10.8703 97.9263 10.7463 97.8277 10.642C97.7292 10.5376 97.61 10.4551 97.4778 10.3999C97.3457 10.3446 97.2035 10.3178 97.0605 10.3211C96.9153 10.3192 96.7713 10.3466 96.6369 10.4017C96.5024 10.4567 96.3803 10.5383 96.2777 10.6416C96.1751 10.7448 96.094 10.8677 96.0394 11.003C95.9847 11.1383 95.9575 11.2832 95.9594 11.4292H95.9594Z" fill="white"/>
</g>
<defs>
<clipPath id="clip0">
<rect width="113" height="38" fill="white"/>
</clipPath>
</defs>
</svg>
