<svg width="64" height="64" viewBox="0 0 64 64" fill="none" xmlns="http://www.w3.org/2000/svg">
<path opacity="0.1" d="M26.4178 32.0001C27.0306 34.2469 25.6689 36.5618 23.422 37.1746C21.1752 37.7873 18.8603 36.4256 18.2476 34.1788C17.6348 31.932 18.9965 29.6171 21.2433 29.0043C23.4901 28.3916 25.805 29.6852 26.4178 32.0001Z" fill="#304FFE"/>
<path opacity="0.1" d="M46.2972 28.8001C46.9099 31.0469 45.5482 33.3618 43.3014 33.9746C41.0546 34.5874 38.7397 33.2256 38.127 30.9788C37.5142 28.732 38.8759 26.4171 41.1227 25.8044C43.3695 25.2597 45.6844 26.5533 46.2972 28.8001Z" fill="#304FFE"/>
<path opacity="0.1" d="M56.7147 10.7575C57.3274 13.0043 55.9657 15.3192 53.7189 15.932C51.4721 16.5447 49.1572 15.183 48.5444 12.9362C47.9317 10.6894 49.2934 8.3745 51.5402 7.76174C53.787 7.21706 56.1019 8.57876 56.7147 10.7575Z" fill="#304FFE"/>
<path opacity="0.1" d="M13.5496 52.8342C14.1624 55.081 12.8007 57.3959 10.5539 58.0087C8.30707 58.6214 5.99217 57.2597 5.3794 55.0129C4.76664 52.7661 6.12834 50.4512 8.37515 49.8384C10.622 49.2938 12.9369 50.5874 13.5496 52.8342Z" fill="#304FFE"/>
<path opacity="0.1" d="M51.269 6.80849C48.4775 7.55743 46.7754 10.417 47.5243 13.2085C47.7967 14.2298 48.3413 15.1149 49.1584 15.7957L43.9158 24.9191C41.1924 23.966 38.1966 25.4638 37.3115 28.1872C37.1754 28.6638 37.0392 29.1404 37.0392 29.6851L27.2349 31.2511C26.2137 28.5277 23.2179 27.166 20.4945 28.1191C17.7711 29.1404 16.4094 32.1362 17.3626 34.8596C17.6349 35.6085 18.1115 36.3575 18.7243 36.9021L11.2349 49.0213C8.44344 48 5.3796 49.3617 4.35833 52.1532C3.33705 54.9447 4.69875 58.0085 7.49024 59.0298C10.2817 60.0511 13.3456 58.6894 14.3668 55.8979C15.1158 53.8553 14.5711 51.6085 13.0051 50.1107L20.4945 37.9915C23.2179 39.0128 26.2137 37.6511 27.1669 34.9277C27.3711 34.383 27.4392 33.8383 27.5073 33.2936L37.2435 31.7277C38.2647 34.4511 41.2605 35.8128 43.9839 34.7915C46.7073 33.7702 48.069 30.7745 47.0477 28.0511C46.7073 27.234 46.2307 26.5532 45.6179 25.9404L50.8605 16.817C53.5839 17.7702 56.5796 16.2723 57.5328 13.4808C58.486 10.7574 56.9881 7.76168 54.1967 6.80849C53.3115 6.53615 52.2903 6.53615 51.269 6.80849ZM10.2817 56.9873C8.57961 57.4639 6.87748 56.4426 6.40088 54.7405C5.92428 53.0383 6.94556 51.3362 8.64769 50.8596C10.3498 50.383 12.0519 51.4043 12.5285 53.1064C12.9371 54.8085 11.9839 56.5107 10.2817 56.9873ZM23.2179 36.0851C21.5158 36.5617 19.8137 35.5404 19.3371 33.8383C18.8605 32.1362 19.8817 30.434 21.5839 29.9574C23.286 29.4809 24.9881 30.5021 25.4647 32.2043C25.8732 33.9064 24.852 35.6766 23.2179 36.0851ZM43.0307 32.9532C41.3286 33.4298 39.6264 32.4085 39.1498 30.7064C38.6732 29.0043 39.6945 27.3021 41.3966 26.8255C43.0988 26.3489 44.8009 27.3702 45.2775 29.0723C45.686 30.7745 44.7328 32.5447 43.0307 32.9532ZM53.4477 14.9106C51.7456 15.3872 50.0435 14.3659 49.5669 12.6638C49.0903 10.9617 50.1115 9.25955 51.8137 8.78296C53.5158 8.30636 55.2179 9.32764 55.6945 11.0298C56.103 12.7319 55.1498 14.5021 53.4477 14.9106Z" fill="url(#paint0_linear)"/>
<path opacity="0.2" d="M26.4178 32.0001C27.0306 34.2469 25.6689 36.5618 23.422 37.1746C21.1752 37.7873 18.8603 36.4256 18.2476 34.1788C17.6348 31.932 18.9965 29.6171 21.2433 29.0043C23.4901 28.3916 25.805 29.6852 26.4178 32.0001Z" fill="#304FFE"/>
<path opacity="0.2" d="M46.2972 28.8001C46.9099 31.0469 45.5482 33.3618 43.3014 33.9746C41.0546 34.5874 38.7397 33.2256 38.127 30.9788C37.5142 28.732 38.8759 26.4171 41.1227 25.8044C43.3695 25.2597 45.6844 26.5533 46.2972 28.8001Z" fill="#304FFE"/>
<path opacity="0.2" d="M56.7147 10.7575C57.3274 13.0043 55.9657 15.3192 53.7189 15.932C51.4721 16.5447 49.1572 15.183 48.5444 12.9362C47.9317 10.6894 49.2934 8.3745 51.5402 7.76174C53.787 7.21706 56.1019 8.57876 56.7147 10.7575Z" fill="#304FFE"/>
<path opacity="0.2" d="M13.5496 52.8342C14.1624 55.081 12.8007 57.3959 10.5539 58.0087C8.30707 58.6214 5.99217 57.2597 5.3794 55.0129C4.76664 52.7661 6.12834 50.4512 8.37515 49.8384C10.622 49.2938 12.9369 50.5874 13.5496 52.8342Z" fill="#304FFE"/>
<path opacity="0.2" d="M51.269 6.80849C48.4775 7.55743 46.7754 10.417 47.5243 13.2085C47.7967 14.2298 48.3413 15.1149 49.1584 15.7957L43.9158 24.9191C41.1924 23.966 38.1966 25.4638 37.3115 28.1872C37.1754 28.6638 37.0392 29.1404 37.0392 29.6851L27.2349 31.2511C26.2137 28.5277 23.2179 27.166 20.4945 28.1191C17.7711 29.1404 16.4094 32.1362 17.3626 34.8596C17.6349 35.6085 18.1115 36.3575 18.7243 36.9021L11.2349 49.0213C8.44344 48 5.3796 49.3617 4.35833 52.1532C3.33705 54.9447 4.69875 58.0085 7.49024 59.0298C10.2817 60.0511 13.3456 58.6894 14.3668 55.8979C15.1158 53.8553 14.5711 51.6085 13.0051 50.1107L20.4945 37.9915C23.2179 39.0128 26.2137 37.6511 27.1669 34.9277C27.3711 34.383 27.4392 33.8383 27.5073 33.2936L37.2435 31.7277C38.2647 34.4511 41.2605 35.8128 43.9839 34.7915C46.7073 33.7702 48.069 30.7745 47.0477 28.0511C46.7073 27.234 46.2307 26.5532 45.6179 25.9404L50.8605 16.817C53.5839 17.7702 56.5796 16.2723 57.5328 13.4808C58.486 10.7574 56.9881 7.76168 54.1967 6.80849C53.3115 6.53615 52.2903 6.53615 51.269 6.80849ZM10.2817 56.9873C8.57961 57.4639 6.87748 56.4426 6.40088 54.7405C5.92428 53.0383 6.94556 51.3362 8.64769 50.8596C10.3498 50.383 12.0519 51.4043 12.5285 53.1064C12.9371 54.8085 11.9839 56.5107 10.2817 56.9873ZM23.2179 36.0851C21.5158 36.5617 19.8137 35.5404 19.3371 33.8383C18.8605 32.1362 19.8817 30.434 21.5839 29.9574C23.286 29.4809 24.9881 30.5021 25.4647 32.2043C25.8732 33.9064 24.852 35.6766 23.2179 36.0851ZM43.0307 32.9532C41.3286 33.4298 39.6264 32.4085 39.1498 30.7064C38.6732 29.0043 39.6945 27.3021 41.3966 26.8255C43.0988 26.3489 44.8009 27.3702 45.2775 29.0723C45.686 30.7745 44.7328 32.5447 43.0307 32.9532ZM53.4477 14.9106C51.7456 15.3872 50.0435 14.3659 49.5669 12.6638C49.0903 10.9617 50.1115 9.25955 51.8137 8.78296C53.5158 8.30636 55.2179 9.32764 55.6945 11.0298C56.103 12.7319 55.1498 14.5021 53.4477 14.9106Z" fill="url(#paint1_linear)"/>
<path opacity="0.2" d="M22.4691 33.0213C23.0818 35.2681 21.7201 37.583 19.4733 38.1957C17.2265 38.8085 14.9116 37.4468 14.2988 35.2C13.6861 32.9532 15.0478 30.6383 17.2946 30.0255C19.5414 29.4808 21.8563 30.7744 22.4691 33.0213Z" fill="#304FFE"/>
<path opacity="0.2" d="M42.2816 29.8894C42.8943 32.1362 41.5326 34.4511 39.2858 35.0639C37.039 35.6766 34.7241 34.3149 34.1113 32.0681C33.4986 29.8213 34.8603 27.5064 37.1071 26.8937C39.422 26.349 41.7369 27.6426 42.2816 29.8894Z" fill="#304FFE"/>
<path opacity="0.2" d="M52.6971 11.8468C53.3098 14.0937 51.9481 16.4086 49.7013 17.0213C47.4545 17.6341 45.1396 16.2724 44.5269 14.0256C43.9141 11.7788 45.2758 9.46387 47.5226 8.8511C49.7694 8.30642 52.0843 9.60004 52.6971 11.8468Z" fill="#304FFE"/>
<path opacity="0.2" d="M9.53156 53.9235C10.1443 56.1703 8.78263 58.4852 6.53581 59.0979C4.289 59.7107 1.97411 58.349 1.36134 56.1022C0.748572 53.8554 2.11028 51.5405 4.35709 50.9277C6.6039 50.383 8.9188 51.6767 9.53156 53.9235Z" fill="#304FFE"/>
<path opacity="0.2" d="M47.3203 7.82982C44.5288 8.57876 42.8266 11.4383 43.5756 14.2298C43.8479 15.2511 44.3926 16.1362 45.2096 16.8171L39.9671 25.9405C37.2437 24.9873 34.2479 26.4852 33.3628 29.2086C33.2266 29.6852 33.0905 30.1618 33.0905 30.7064L23.3543 32.2724C22.333 29.549 19.3373 28.1873 16.6139 29.1405C13.8905 30.1618 12.5288 33.1575 13.4819 35.8809C13.7543 36.6298 14.2309 37.3788 14.8436 37.9235L7.35428 50.0426C4.49471 49.0213 1.43087 50.4511 0.409596 53.1745C-0.611681 55.966 0.750022 59.0299 3.54151 60.0511C6.333 61.0724 9.39684 59.7107 10.4181 56.9192C11.1671 54.8767 10.6224 52.6299 9.05641 51.132L16.5458 39.0128C19.2692 40.0341 22.2649 38.6724 23.2181 35.949C23.4224 35.4043 23.4905 34.8596 23.5585 34.3149L33.2947 32.749C34.316 35.4724 37.3117 36.8341 40.0352 35.8128C42.7586 34.7915 44.1203 31.7958 43.099 29.0724C42.7586 28.2554 42.282 27.5745 41.6692 26.9618L46.9798 17.9064C49.7032 18.8596 52.699 17.3617 53.6522 14.5703C54.6054 11.8468 53.1075 8.8511 50.316 7.89791C49.3628 7.62556 48.2735 7.55748 47.3203 7.82982ZM6.333 58.0767C4.63088 58.5533 2.92875 57.532 2.45215 55.8299C1.97555 54.1277 2.99683 52.4256 4.69896 51.949C6.40109 51.4724 8.10322 52.4937 8.57981 54.1958C8.98833 55.8979 7.96705 57.6001 6.333 58.0767ZM19.2011 37.1745C17.499 37.6511 15.7968 36.6298 15.3202 34.9277C14.8436 33.2256 15.8649 31.5235 17.5671 31.0469C19.2692 30.5703 20.9713 31.5915 21.4479 33.2937C21.9245 34.9958 20.9032 36.6979 19.2011 37.1745ZM39.082 34.0426C37.3798 34.5192 35.6777 33.4979 35.2011 31.7958C34.7245 30.0937 35.7458 28.3915 37.4479 27.9149C39.15 27.4383 40.8522 28.4596 41.3288 30.1618C41.8054 31.8639 40.716 33.566 39.082 34.0426ZM49.499 16C47.7969 16.4766 46.0947 15.4554 45.6181 13.7532C45.1415 12.0511 46.1628 10.349 47.8649 9.87237C49.5671 9.39578 51.2692 10.4171 51.7458 12.1192C52.1543 13.8213 51.133 15.5234 49.499 16Z" fill="url(#paint2_linear)"/>
<path d="M30.4334 30.9107C31.0462 33.1575 29.6845 35.4724 27.4377 36.0851C25.1909 36.6979 22.876 35.3362 22.2632 33.0894C21.6504 30.8426 23.0121 28.5277 25.2589 27.9149C27.5057 27.3021 29.8206 28.6638 30.4334 30.9107Z" fill="#304FFE"/>
<path d="M50.2459 27.7788C50.8587 30.0256 49.497 32.3405 47.2502 32.9533C45.0034 33.566 42.6885 32.2043 42.0757 29.9575C41.4629 27.7107 42.8246 25.3958 45.0714 24.7831C47.3863 24.1703 49.6332 25.532 50.2459 27.7788Z" fill="#304FFE"/>
<path d="M60.6629 9.73622C61.2757 11.983 59.914 14.2979 57.6672 14.9107C55.4203 15.5235 53.1055 14.1618 52.4927 11.9149C51.8799 9.66814 53.2416 7.35324 55.4884 6.74047C57.7352 6.12771 60.0501 7.48941 60.6629 9.73622Z" fill="#304FFE"/>
<path d="M17.4979 51.8129C18.1106 54.0597 16.7489 56.3746 14.5021 56.9873C12.2553 57.6001 9.94041 56.2384 9.32765 53.9916C8.71488 51.7448 10.0766 49.4299 12.3234 48.8171C14.5702 48.2043 16.8851 49.566 17.4979 51.8129Z" fill="#304FFE"/>
<path d="M55.2165 5.71915C52.425 6.46808 50.7229 9.32766 51.4719 12.1191C51.7442 13.1404 52.2889 14.0255 53.1059 14.7064L47.8633 23.8298C45.1399 22.8766 42.1442 24.3745 41.2591 27.0979C41.1229 27.5745 40.9867 28.0511 40.9867 28.5958L31.2506 30.1617C30.2293 27.4383 27.2335 26.0766 24.5101 27.0298C21.7867 28.0511 20.425 31.0468 21.3782 33.7702C21.6506 34.5192 22.1272 35.2681 22.7399 35.8128L15.2506 47.9319C12.4591 46.9107 9.39523 48.2724 8.37395 51.0638C7.35267 53.8553 8.71438 56.9192 11.5059 57.9404C14.2974 58.9617 17.3612 57.6 18.3825 54.8085C19.1314 52.766 18.5867 50.5192 17.0208 49.0213L24.5101 36.9021C27.2335 37.9234 30.2293 36.5617 31.1825 33.8383C31.3867 33.2936 31.4548 32.7489 31.5229 32.2043L41.2591 30.6383C42.2804 33.3617 45.2761 34.7234 47.9995 33.7021C50.7229 32.6809 52.0846 29.6851 51.0633 26.9617C50.7229 26.1447 50.2463 25.4638 49.6336 24.8511L54.8761 15.7277C57.5995 16.6809 60.5953 15.183 61.5485 12.3915C62.5017 9.66809 61.0038 6.67234 58.2123 5.71915C57.3272 5.51489 56.2378 5.44681 55.2165 5.71915ZM14.2293 55.8979C12.5271 56.3745 10.825 55.3532 10.3484 53.6511C9.87182 51.9489 10.8931 50.2468 12.5952 49.7702C14.2974 49.2936 15.9995 50.3149 16.4761 52.017C16.9527 53.7192 15.9314 55.4894 14.2293 55.8979ZM27.1655 35.0638C25.4633 35.5404 23.7612 34.5192 23.2846 32.817C22.808 31.1149 23.8293 29.4128 25.5314 28.9362C27.2335 28.4596 28.9357 29.4809 29.4123 31.183C29.8889 32.8851 28.8676 34.5872 27.1655 35.0638ZM46.9782 31.8638C45.2761 32.3404 43.574 31.3192 43.0974 29.617C42.6208 27.9149 43.6421 26.2128 45.3442 25.7362C47.0463 25.2596 48.7484 26.2809 49.225 27.983C49.7016 29.6851 48.6804 31.4553 46.9782 31.8638ZM57.3953 13.8213C55.6931 14.2979 53.991 13.2766 53.5144 11.5745C53.0378 9.87234 54.0591 8.17021 55.7612 7.69362C57.4633 7.21702 59.1655 8.2383 59.6421 9.94042C60.1187 11.6426 59.0974 13.4128 57.3953 13.8213Z" fill="url(#paint3_linear)"/>
<path d="M27.5733 22.6042L31.6584 16.2042C32.0669 15.5234 33.0201 15.3191 33.7009 15.7276C34.3818 16.1362 34.586 17.0893 34.1775 17.7702L30.0924 24.1702C29.6839 24.8511 28.7307 25.0553 28.0499 24.6468C27.3009 24.2383 27.0967 23.2851 27.5733 22.6042Z" fill="url(#paint4_linear)" fill-opacity="0.2"/>
<path d="M28.5288 20.9703L32.614 14.5703C33.0225 13.8895 33.9757 13.6852 34.6565 14.0937C35.3374 14.5022 35.5416 15.4554 35.1331 16.1363L31.048 22.5363C30.6395 23.2171 29.6863 23.4214 29.0054 23.0129C28.2565 22.5363 28.0522 21.6512 28.5288 20.9703Z" fill="url(#paint5_linear)" fill-opacity="0.2"/>
<path d="M26.2116 51.8809L30.2967 45.4809C30.7052 44.8 31.6584 44.5958 32.3392 45.0043C33.0201 45.4128 33.2243 46.366 32.8158 47.0468L28.7307 53.4469C28.3222 54.1277 27.369 54.332 26.6882 53.9235C26.0073 53.5149 25.803 52.5618 26.2116 51.8809Z" fill="url(#paint6_linear)" fill-opacity="0.2"/>
<path d="M27.1647 50.1788L31.2498 43.7787C31.6583 43.0979 32.6115 42.8936 33.2923 43.3021C33.9732 43.7107 34.1775 44.6639 33.7689 45.3447L29.6838 51.7447C29.2753 52.4256 28.3221 52.6298 27.6413 52.2213C26.9604 51.8128 26.7562 50.8596 27.1647 50.1788Z" fill="url(#paint7_linear)" fill-opacity="0.2"/>
<path d="M29.482 19.2681L33.5671 12.8682C33.9756 12.1873 34.9288 11.9831 35.6096 12.3916C36.2905 12.8001 36.4947 13.7533 36.0862 14.4341L32.0011 20.8341C31.5926 21.515 30.6394 21.7192 29.9586 21.3107C29.2096 20.9022 29.0054 19.949 29.482 19.2681Z" fill="url(#paint8_linear)"/>
<defs>
<linearGradient id="paint0_linear" x1="0.402374" y1="41.1836" x2="61.5289" y2="24.8047" gradientUnits="userSpaceOnUse">
<stop stop-color="#9A26F6"/>
<stop offset="0.0378898" stop-color="#9E28F0"/>
<stop offset="0.3241" stop-color="#B836CB"/>
<stop offset="0.589" stop-color="#CB41AF"/>
<stop offset="0.8226" stop-color="#D6479F"/>
<stop offset="1" stop-color="#DA4999"/>
</linearGradient>
<linearGradient id="paint1_linear" x1="0.402374" y1="41.1836" x2="61.5289" y2="24.8047" gradientUnits="userSpaceOnUse">
<stop stop-color="#9A26F6"/>
<stop offset="0.0378898" stop-color="#9E28F0"/>
<stop offset="0.3241" stop-color="#B836CB"/>
<stop offset="0.589" stop-color="#CB41AF"/>
<stop offset="0.8226" stop-color="#D6479F"/>
<stop offset="1" stop-color="#DA4999"/>
</linearGradient>
<linearGradient id="paint2_linear" x1="-3.56746" y1="42.2475" x2="57.5591" y2="25.8686" gradientUnits="userSpaceOnUse">
<stop stop-color="#9A26F6"/>
<stop offset="0.0378898" stop-color="#9E28F0"/>
<stop offset="0.3241" stop-color="#B836CB"/>
<stop offset="0.589" stop-color="#CB41AF"/>
<stop offset="0.8226" stop-color="#D6479F"/>
<stop offset="1" stop-color="#DA4999"/>
</linearGradient>
<linearGradient id="paint3_linear" x1="4.38831" y1="40.1152" x2="65.5148" y2="23.7364" gradientUnits="userSpaceOnUse">
<stop stop-color="#9A26F6"/>
<stop offset="0.0378898" stop-color="#9E28F0"/>
<stop offset="0.3241" stop-color="#B836CB"/>
<stop offset="0.589" stop-color="#CB41AF"/>
<stop offset="0.8226" stop-color="#D6479F"/>
<stop offset="1" stop-color="#DA4999"/>
</linearGradient>
<linearGradient id="paint4_linear" x1="33.4729" y1="15.5733" x2="27.4954" y2="26.0643" gradientUnits="userSpaceOnUse">
<stop stop-color="#86D1E9"/>
<stop offset="1" stop-color="#001AFF"/>
</linearGradient>
<linearGradient id="paint5_linear" x1="34.4382" y1="13.9058" x2="28.4606" y2="24.3966" gradientUnits="userSpaceOnUse">
<stop stop-color="#86D1E9"/>
<stop offset="1" stop-color="#001AFF"/>
</linearGradient>
<linearGradient id="paint6_linear" x1="32.1484" y1="44.8279" x2="26.1709" y2="55.3188" gradientUnits="userSpaceOnUse">
<stop stop-color="#86D1E9"/>
<stop offset="1" stop-color="#001AFF"/>
</linearGradient>
<linearGradient id="paint7_linear" x1="33.1112" y1="43.1601" x2="27.1336" y2="53.6513" gradientUnits="userSpaceOnUse">
<stop stop-color="#86D1E9"/>
<stop offset="1" stop-color="#001AFF"/>
</linearGradient>
<linearGradient id="paint8_linear" x1="35.4008" y1="12.238" x2="29.4233" y2="22.7288" gradientUnits="userSpaceOnUse">
<stop stop-color="#86D1E9"/>
<stop offset="1" stop-color="#001AFF"/>
</linearGradient>
</defs>
</svg>
