<svg width="146" height="87" viewBox="0 0 146 87" fill="none" xmlns="http://www.w3.org/2000/svg">
<path d="M9.27244 52.8647H3.32866L0 76.569H6.18277L9.27244 52.8647Z" fill="white"/>
<path d="M47.7961 87H54.9314L24.0175 43.6177H16.8823L47.7961 87Z" fill="url(#paint0_linear)"/>
<path d="M9.75043 76.569H15.6942L17.1213 67.0866L16.8823 62.5825H17.1213L18.5483 67.0866L22.5905 76.569H28.5343L31.8629 52.8647H25.9192L24.4921 63.5311V67.5609V67.7963L23.0651 63.0568L18.7839 52.8647H13.0791L9.75043 76.569Z" fill="white"/>
<path d="M43.9895 64.4797L42.3234 69.9323L41.8489 64.4797L39.7083 52.8647H33.29L38.5202 76.569H43.9895L55.877 52.8647H49.4553L43.9895 64.4797Z" fill="white"/>
<path d="M62.5378 58.5528H73.0017L73.7153 52.8647H57.3075L53.9789 76.569H70.3866L71.3391 70.8809H60.8718L61.3463 67.3254H70.8577L71.5713 62.1117H62.0598L62.5378 58.5528Z" fill="white"/>
<path d="M72.7627 72.5393C74.6643 75.385 77.993 76.8079 80.8471 76.8079C85.8418 76.8079 89.8839 74.4364 90.833 69.9324C92.0211 64.0054 87.9789 62.5826 83.9367 61.8728C82.0351 61.3985 80.8471 60.9242 81.0826 59.5014C81.3216 58.3174 82.5097 57.8431 83.9367 57.8431C85.3638 57.8431 86.7909 58.3174 87.9789 59.5014L92.2601 56.4202C90.1195 53.5744 87.5044 52.6259 84.6503 52.6259C80.3691 52.6259 76.0913 54.2842 75.1388 59.0271C74.1863 63.5311 77.515 66.3769 81.3216 67.0866C83.2232 67.3255 85.3638 68.0352 85.1248 69.4581C84.8858 70.6421 83.4588 71.3552 81.7962 71.3552C80.1301 71.3552 77.993 70.6455 77.0404 68.9838L72.7627 72.5393Z" fill="white"/>
<path d="M112.471 58.3173L113.185 52.8647H94.4007L93.6872 58.3173H100.109L97.4938 76.5724H103.438L106.053 58.3173H112.471Z" fill="white"/>
<path d="M112.235 47.412H105.1L138.868 0H145.764L112.235 47.412Z" fill="url(#paint1_linear)"/>
<path d="M54.9279 87H47.7961L91.072 28.4472H98.2073L54.9279 87Z" fill="url(#paint2_linear)"/>
<path d="M105.1 47.412H112.235L98.2073 28.4472H91.072L105.1 47.412Z" fill="url(#paint3_linear)"/>
<path d="M13.5536 20.6232H24.0175L24.7311 14.9351H8.32335L4.99469 38.404H10.9385L12.1266 30.3444H21.1634L21.877 24.8918H13.0791L13.5536 20.6232ZM37.3322 14.9351H31.8629L20.4499 38.404H26.8682L29.0088 33.661H35.1916L36.1441 38.404H42.5658L37.3322 14.9351ZM30.9138 28.4473L33.529 21.5717H33.7679L34.4815 28.4473H30.9138ZM43.9895 38.6394H49.9333L51.1213 29.157V24.6529H51.3603L52.7874 29.3924L56.8296 38.636H62.7733L66.102 15.1671H60.1582L58.7312 25.8335V29.8633H58.4922L57.0651 25.1238L52.784 15.1671H47.0757L43.9895 38.6394ZM86.3163 20.3877L87.0299 14.9351H68.246L67.5325 20.3877H73.9542L71.5781 38.6428H77.5219L79.9014 20.6266H86.3232V20.3877H86.3163ZM98.4429 14.9351H92.9736L81.5606 38.404H87.9824L90.123 33.661H96.3057L97.2582 38.404H103.68L98.4429 14.9351ZM92.0245 28.4473L94.6397 21.5717H94.8787L95.5922 28.4473H92.0245ZM103.912 34.6096C105.814 37.4554 109.142 38.8782 111.996 38.8782C116.991 38.8782 121.033 36.5068 121.982 32.0027C123.171 26.0758 119.128 24.6529 115.086 23.9432C113.185 23.4689 111.996 22.9946 112.232 21.5717C112.471 20.3877 113.659 19.9134 115.086 19.9134C116.513 19.9134 117.94 20.3877 119.128 21.5717L123.41 18.4906C121.269 15.6448 118.654 14.6962 115.8 14.6962C111.519 14.6962 107.241 16.3545 106.288 21.0975C105.336 25.6015 108.664 28.4473 112.471 29.157C114.373 29.3958 116.513 30.1056 116.274 31.5284C116.035 32.7125 114.608 33.4256 112.946 33.4256C111.28 33.4256 109.142 32.7159 108.19 31.0542L103.912 34.6096ZM134.587 38.6394L135.775 29.3958L146 15.1739H139.104L133.634 23.4723L130.545 15.1739H123.887L130.07 29.3958L128.643 38.6394H134.587Z" fill="white"/>
<defs>
<linearGradient id="paint0_linear" x1="16.6358" y1="65.3097" x2="54.7884" y2="65.3097" gradientUnits="userSpaceOnUse">
<stop stop-color="#9A26F6"/>
<stop offset="1" stop-color="#DA4999"/>
</linearGradient>
<linearGradient id="paint1_linear" x1="105.203" y1="23.7058" x2="145.864" y2="23.7058" gradientUnits="userSpaceOnUse">
<stop stop-color="#F8CA7A"/>
<stop offset="0.1618" stop-color="#F4AD7B"/>
<stop offset="0.411" stop-color="#EF887D"/>
<stop offset="0.6419" stop-color="#EC6C7F"/>
<stop offset="0.8454" stop-color="#EA5C80"/>
<stop offset="1" stop-color="#E95680"/>
</linearGradient>
<linearGradient id="paint2_linear" x1="47.8594" y1="57.7234" x2="98.1086" y2="57.7234" gradientUnits="userSpaceOnUse">
<stop stop-color="#65C39D"/>
<stop offset="0.2903" stop-color="#89D684"/>
<stop offset="0.5685" stop-color="#A5E471"/>
<stop offset="0.8137" stop-color="#B5ED65"/>
<stop offset="1" stop-color="#BBF061"/>
</linearGradient>
<linearGradient id="paint3_linear" x1="91.1178" y1="37.9291" x2="112.194" y2="37.9291" gradientUnits="userSpaceOnUse">
<stop stop-color="#3B6AF6"/>
<stop offset="0.1919" stop-color="#4A8EF8"/>
<stop offset="0.4321" stop-color="#5BB3FA"/>
<stop offset="0.6547" stop-color="#66CFFB"/>
<stop offset="0.851" stop-color="#6DDFFC"/>
<stop offset="1" stop-color="#70E5FC"/>
</linearGradient>
</defs>
</svg>
