<svg width="494" height="363" viewBox="0 0 494 363" fill="none" xmlns="http://www.w3.org/2000/svg">
<mask id="mask0" mask-type="alpha" maskUnits="userSpaceOnUse" x="0" y="0" width="494" height="363">
<rect x="0.100098" width="493.9" height="362.016" fill="#C4C4C4"/>
</mask>
<g mask="url(#mask0)">
<ellipse cx="354.473" cy="285.281" rx="216.523" ry="59.8744" fill="url(#paint0_linear)"/>
<ellipse cx="354.473" cy="285.281" rx="194.244" ry="44.5577" transform="rotate(180 354.473 285.281)" fill="url(#paint1_linear)"/>
<path d="M130.921 126.688C132.598 126.688 161.433 154.146 135.379 128.483L181.901 169.245L212.054 139.545C214.499 137.137 218.477 137.137 220.922 139.545L285.638 203.289L340.91 148.894C343.355 146.486 347.334 146.486 349.778 148.894L458.501 255.985L458.501 246.164C458.501 242.764 461.329 239.978 464.781 239.978C468.232 239.978 471.06 242.764 471.06 246.164L471.06 270.906C471.06 271.662 470.917 272.37 470.629 273.078C470.533 273.267 470.437 273.503 470.341 273.692C470.102 274.164 469.814 274.589 469.478 274.967C468.903 275.628 468.184 276.195 467.369 276.525C467.321 276.525 467.273 276.62 467.225 276.62C466.506 276.903 465.787 277.044 465.02 277.044C464.924 277.044 464.876 277.092 464.781 277.092L439.613 277.092C436.162 277.092 433.334 274.306 433.334 270.906C433.334 267.506 436.162 264.721 439.613 264.721L449.584 264.721L345.368 162.021L290.096 216.463C287.651 218.872 283.673 218.872 281.228 216.463L216.512 152.719L186.359 182.419C183.915 184.827 179.936 184.827 177.491 182.419L126.51 137.265C124.066 134.857 124.066 130.938 126.51 128.53C127.661 127.349 129.291 126.688 130.921 126.688Z" fill="url(#paint2_linear)"/>
<path d="M349.758 38.606C351.658 36.4798 354.975 36.4475 356.916 38.5364L397.249 81.9396L397.249 74.1426C397.249 71.4437 399.375 69.232 401.969 69.232C404.563 69.232 406.689 71.4437 406.689 74.1426L406.689 93.785C406.689 94.3847 406.581 94.947 406.365 95.5093C406.293 95.6592 406.22 95.8467 406.148 95.9966C405.968 96.3715 405.752 96.7088 405.5 97.0087C405.068 97.5335 404.527 97.9833 403.915 98.2457C403.879 98.2457 403.842 98.3207 403.806 98.3207C403.266 98.5456 402.725 98.6581 402.149 98.6581C402.077 98.6581 402.041 98.6956 401.969 98.6956L383.053 98.6956C380.458 98.6956 378.333 96.4839 378.333 93.785C378.333 91.086 380.458 88.8744 383.053 88.8744L390.547 88.8744L349.824 45.1324C348.119 43.3008 348.09 40.4718 349.758 38.606Z" fill="url(#paint3_linear)"/>
<path d="M191.775 192.409C192.994 190.992 195.18 190.971 196.426 192.364L221.672 220.581L221.672 215.496C221.672 213.736 223.006 212.294 224.635 212.294C226.264 212.294 227.599 213.736 227.599 215.496L227.599 228.306C227.599 228.697 227.531 229.064 227.395 229.431C227.35 229.529 227.305 229.651 227.26 229.749C227.146 229.993 227.011 230.213 226.852 230.409C226.581 230.751 226.242 231.044 225.857 231.215C225.834 231.215 225.812 231.264 225.789 231.264C225.45 231.411 225.11 231.484 224.748 231.484C224.703 231.484 224.68 231.509 224.635 231.509L212.758 231.509C211.129 231.509 209.794 230.066 209.794 228.306C209.794 226.546 211.129 225.104 212.758 225.104L217.463 225.104L191.817 196.491C190.779 195.334 190.762 193.587 191.775 192.409Z" fill="url(#paint4_linear)"/>
<mask id="mask1" mask-type="alpha" maskUnits="userSpaceOnUse" x="211" y="97" width="270" height="219">
<path d="M212.45 287.776C212.45 272.236 194.22 97.3033 343.711 97.3033C506.876 97.3033 478.618 272.236 478.618 287.776C478.618 303.317 419.034 315.915 345.534 315.915C272.034 315.915 212.45 303.317 212.45 287.776Z" fill="url(#paint5_linear)"/>
</mask>
<g mask="url(#mask1)">
<path d="M398.102 134.877C395.24 132.458 391.118 132.227 388.027 134.416C385.738 136.145 384.708 138.91 383.792 141.676C382.418 145.593 380.243 149.511 379.785 153.659C378.754 165.182 370.741 174.861 368.337 186.153C367.421 190.186 367.306 194.449 365.589 198.251C364.788 199.865 363.872 201.478 362.841 202.976C358.835 209.313 355.4 216.111 352.538 223.025C350.592 223.601 348.875 225.56 347.272 227.058C345.211 229.017 342.807 230.515 340.06 231.436C338.915 231.667 337.999 232.128 337.083 232.934C335.938 234.202 335.938 236.161 335.022 237.543C334.335 238.465 333.42 239.157 332.389 239.733C332.275 239.387 332.275 239.041 332.275 238.696C332.046 236.967 331.817 235.124 331.702 233.395C337.197 225.329 336.053 214.383 328.955 207.585C328.726 204.819 328.84 202.054 329.184 199.288C329.527 197.906 329.069 196.523 328.039 195.601C327.467 195.256 326.78 195.14 326.207 194.91C325.291 194.334 324.604 193.527 324.032 192.721C320.712 188.918 315.102 188.112 310.867 190.762C307.661 192.951 305.944 196.753 303.196 199.519C301.823 200.902 300.105 202.054 298.732 203.437C295.869 206.432 294.038 210.35 293.465 214.383C292.893 218.416 292.664 222.564 293.007 226.712C293.007 227.98 293.122 229.247 293.58 230.399C294.038 231.321 294.496 232.243 295.297 233.05C298.617 237.428 303.082 240.885 308.119 243.074C308.119 243.305 308.119 243.535 308.119 243.766C308.119 244.111 308.119 244.572 308.005 244.918L307.432 244.803C305.371 244.572 303.196 244.803 301.25 243.996C298.045 242.613 296.671 238.35 293.465 236.737C293.236 236.622 292.893 236.506 292.664 236.391C291.863 230.976 290.374 225.79 287.97 220.951C286.825 218.646 285.566 216.227 285.452 213.692C285.566 211.272 286.024 208.852 287.054 206.663C289.687 198.712 291.634 190.647 293.122 182.465C294.152 177.28 295.183 172.21 296.213 167.025C297.587 165.758 298.846 164.26 299.991 162.647C302.166 159.42 303.54 155.733 303.769 151.815C303.998 147.898 302.624 144.095 299.991 141.099C298.846 139.717 297.129 138.795 295.297 138.795C293.694 139.025 292.321 139.832 291.405 141.099C290.031 143.058 289.001 145.248 288.428 147.667C287.283 151.47 286.139 155.503 286.711 159.42C287.169 162.762 288.772 166.219 287.169 169.099C281.788 178.663 278.125 189.264 274.118 199.404C273.088 201.823 272.286 204.358 271.599 206.893C270.798 211.041 270.683 215.19 271.141 219.453C272.057 227.288 273.545 235.008 275.606 242.613C276.408 246.07 277.438 249.757 279.384 252.523C278.697 256.44 278.468 260.358 278.926 264.276C278.926 265.198 279.155 266.119 279.613 266.811C280.3 267.733 281.101 268.539 282.017 269.231C284.536 271.535 285.91 274.877 285.795 278.218C285.795 281.329 286.482 284.44 287.627 287.436C290.374 295.617 293.122 303.913 295.526 312.21C296.098 313.708 296.327 315.321 296.327 316.934C296.327 319.238 295.183 321.543 295.755 323.848C296.098 324.885 296.442 325.922 296.671 327.074C296.671 327.88 296.556 328.802 296.327 329.494C294.839 335.946 290.489 351.041 291.29 357.724L292.778 357.148C292.206 365.905 289.458 374.547 288.428 383.419C287.741 389.872 287.856 396.325 288.657 402.662C289.115 405.543 289.344 408.423 289.344 411.304C289.344 413.839 288.886 416.489 288.772 419.024C288.772 422.481 288.886 425.938 289.344 429.394C289.802 434.81 290.603 440.11 291.863 445.411C294.267 454.398 292.664 463.616 292.893 472.95C293.236 479.402 293.122 485.855 292.664 492.308C292.435 495.073 292.092 497.723 291.977 500.489C291.748 508.67 294.152 516.735 293.236 524.801C292.893 528.604 291.863 532.867 294.267 535.863C295.068 536.785 295.984 537.476 296.785 538.398C297.701 539.204 298.045 540.472 297.816 541.624C297.472 542.546 296.671 543.237 296.442 544.159C296.213 545.657 297.816 546.694 299.304 547.155L299.647 547.27C299.533 548.307 299.991 549.229 300.678 550.036C301.594 550.727 302.624 551.188 303.769 551.303L322.086 554.875C326.207 555.682 330.672 556.373 334.45 554.99C334.564 555.567 334.908 556.027 335.366 556.488C336.282 557.18 337.312 557.641 338.457 557.756L356.774 561.328C361.468 562.25 366.619 563.056 370.741 560.752C371.886 560.06 372.916 559.139 373.717 557.986C374.862 555.797 375.091 553.147 374.061 550.842C373.717 549.69 373.03 548.653 372 547.846C370.741 547.155 369.252 546.809 367.764 546.925C366.505 547.04 365.246 546.809 364.101 546.348C363.757 546.118 363.414 545.888 363.185 545.542C364.101 544.39 365.017 543.237 365.818 542.085C365.017 541.855 364.673 540.818 364.444 540.011C362.04 528.028 365.36 515.814 365.818 503.6C366.047 497.493 365.589 491.386 364.444 485.394C363.986 483.09 363.414 480.9 363.185 478.596C361.468 466.727 366.047 454.629 364.559 442.645C363.872 437.114 366.276 431.238 367.077 425.707C367.879 420.752 367.306 415.798 366.848 410.728L363.07 371.551C362.498 366.251 362.04 360.835 359.75 355.995C358.606 353.345 358.148 350.349 358.148 347.469C362.727 344.819 366.963 341.247 372.114 341.131C373.145 337.329 370.283 325.345 368.566 321.773C362.04 307.831 359.521 292.276 361.124 276.835C361.697 271.305 359.521 265.774 360.323 260.243C360.437 258.975 360.781 257.708 361.353 256.556C361.926 255.403 363.07 254.597 364.444 254.482C364.101 251.14 363.643 247.799 363.185 244.572C365.017 242.613 366.619 240.424 367.764 237.889C370.168 232.819 371.199 227.404 372.572 221.988C375.091 212.539 378.983 203.552 381.96 194.219C384.936 184.885 384.364 175.091 386.539 165.527C387.799 160.227 391.004 155.733 395.469 152.737C397.186 151.585 399.132 150.663 400.392 148.935C401.307 147.552 401.765 145.939 401.765 144.211C402.223 140.869 400.735 137.297 398.102 134.877ZM328.039 538.052C328.382 537.591 328.726 537.13 329.069 536.67C327.81 536.554 326.322 535.863 326.207 534.711C326.207 533.443 326.322 532.291 326.551 531.023C326.894 528.949 326.78 526.76 326.207 524.686C325.749 523.303 325.177 521.921 324.719 520.423C324.261 518.809 323.918 517.196 323.689 515.583C322.544 509.707 320.827 504.061 318.537 498.53C316.247 493.229 317.965 487.468 318.079 481.592C318.079 478.826 317.621 476.061 318.308 473.411C318.651 471.797 319.453 470.415 319.911 468.802C320.827 465.114 319.682 461.312 318.537 457.74C323.116 447.024 323.689 434.695 324.604 422.942C325.177 416.374 325.635 409.921 326.207 403.353C326.436 400.473 326.665 397.362 328.268 394.942C331.015 403.238 332.618 411.88 333.076 420.637C333.076 423.172 333.42 425.707 333.992 428.127C334.679 430.892 336.167 433.312 337.083 435.962C339.144 441.839 338.915 448.176 339.945 454.283C340.288 456.818 340.861 459.238 341.319 461.658C342.922 472.604 340.403 483.666 337.77 494.382C336.167 500.95 336.511 508.209 336.053 515.007C335.709 521.46 335.366 528.028 335.48 534.48C335.48 536.439 335.595 538.513 335.595 540.472C335.022 540.357 334.335 540.357 333.763 540.357C332.504 540.472 331.244 540.242 330.1 539.781C328.955 539.55 328.382 538.859 328.039 538.052Z" fill="url(#paint6_linear)"/>
<path d="M351.051 229.593C354.142 221.066 358.263 212.885 363.071 205.165C364.101 203.667 365.017 202.054 365.819 200.441C367.536 196.754 367.65 192.49 368.566 188.458C371.085 177.281 379.099 167.602 380.129 156.194C380.472 152.046 382.762 148.244 384.136 144.326C385.052 141.676 386.082 138.91 388.372 137.182C391.463 135.108 395.584 135.338 398.446 137.643C401.194 140.063 402.682 143.635 402.453 147.322C402.453 148.935 401.995 150.663 401.079 152.046C399.82 153.775 397.874 154.696 396.156 155.733C391.692 158.614 388.486 163.223 387.227 168.408C385.052 177.857 385.624 187.651 382.533 196.869C379.442 206.087 375.664 215.075 373.146 224.523C371.772 229.824 370.741 235.354 368.337 240.309C365.933 245.264 361.926 249.758 356.546 251.025C356.202 247.568 355.286 244.227 353.913 241.116C352.195 237.544 349.677 233.28 351.051 229.593Z" fill="url(#paint7_linear)"/>
<path d="M293.468 242.729C293.01 236.046 291.293 229.363 288.43 223.371C287.286 221.066 286.026 218.762 285.912 216.112C286.026 213.692 286.484 211.388 287.515 209.198C290.148 201.363 292.208 193.297 293.582 185.116L296.788 169.791C298.161 168.524 299.421 167.026 300.451 165.412C302.626 162.186 304 158.499 304.229 154.581C304.458 150.664 303.084 146.861 300.451 143.98C299.306 142.598 297.589 141.791 295.757 141.791C294.155 142.022 292.781 142.828 291.865 144.096C290.491 146.055 289.461 148.244 289.003 150.548C287.858 154.351 286.713 158.268 287.171 162.186C287.629 165.412 289.232 168.984 287.629 171.865C282.019 181.198 278.356 191.799 274.349 201.824C273.319 204.244 272.517 206.778 271.831 209.313C271.029 213.346 270.915 217.494 271.487 221.643C272.403 229.478 273.891 237.083 275.952 244.688C277.097 249.412 278.471 254.597 282.477 257.478C285.683 252.177 289.003 247.108 293.468 242.729Z" fill="url(#paint8_linear)"/>
<path d="M315.791 244.111C326.666 244.111 335.482 235.238 335.482 224.293C335.482 213.347 326.666 204.474 315.791 204.474C304.917 204.474 296.101 213.347 296.101 224.293C296.101 235.238 304.917 244.111 315.791 244.111Z" fill="#A0616A"/>
<path d="M308.464 245.955C308.35 249.527 306.747 252.984 305.259 256.21C304.343 258.169 303.084 260.359 301.023 260.819C306.976 263.239 313.158 264.968 319.455 266.12C321.63 266.581 323.805 266.696 326.095 266.466C327.926 266.12 329.758 265.429 331.361 264.507C338.573 260.359 343.496 253.215 344.755 244.918C342.351 245.264 339.832 245.264 337.428 245.149C336.054 245.149 334.681 244.688 333.65 243.766C332.963 242.844 332.62 241.807 332.62 240.655C332.162 237.429 331.819 234.087 331.59 230.861C326.781 231.091 321.973 232.128 317.623 234.087C315.791 234.894 313.959 235.815 312.128 236.507C310.983 236.968 307.663 236.968 306.862 237.774C305.488 239.042 308.464 243.536 308.464 245.955Z" fill="#A0616A"/>
<path d="M318.311 257.017C317.28 251.717 313.159 247.684 307.893 246.992C305.832 246.762 303.657 246.992 301.711 246.186C298.505 244.803 297.131 240.655 293.926 239.042C290.72 237.429 286.713 238.926 284.309 241.692C281.905 244.457 280.989 248.145 280.188 251.601C279.043 256.441 278.7 261.28 279.158 266.235C279.158 267.157 279.501 267.963 279.845 268.77C280.531 269.692 281.333 270.498 282.134 271.19C284.653 273.494 286.027 276.721 285.912 280.177C285.912 283.288 286.599 286.4 287.744 289.395C290.491 297.576 293.239 305.757 295.643 314.054C296.215 315.552 296.444 317.165 296.444 318.778C296.444 321.082 295.3 323.387 295.872 325.691C296.215 326.729 296.559 327.766 296.788 328.918C296.788 329.724 296.673 330.531 296.444 331.338C294.956 337.79 290.606 352.77 291.407 359.337C301.138 355.765 315.906 353.576 326.21 352.424C329.072 352.078 331.934 351.963 334.796 351.963C341.665 351.963 348.877 353.23 355.288 350.695C361.241 348.391 366.164 342.86 372.575 342.86C373.605 339.058 370.743 327.189 369.026 323.617C362.501 309.675 359.982 294.35 361.585 279.025C362.157 273.494 359.982 267.963 360.783 262.548C360.898 261.28 361.241 260.013 361.814 258.861C362.386 257.708 363.531 256.902 364.905 256.786C364.103 248.26 362.501 239.733 359.982 231.552C359.066 228.671 357.349 225.215 354.372 225.099C351.625 224.869 349.564 227.404 347.618 229.363C345.557 231.322 343.153 232.82 340.406 233.741C339.261 233.972 338.345 234.433 337.429 235.239C336.284 236.392 336.284 238.466 335.368 239.848C333.766 242.383 329.53 242.614 328.499 245.494C328.27 246.301 328.156 247.223 328.041 248.029C327.584 249.758 326.668 251.256 325.294 252.408C323.348 254.367 320.944 255.98 318.311 257.017Z" fill="url(#paint9_linear)"/>
<path d="M329.528 201.709C329.872 200.326 329.414 198.943 328.383 198.137C327.811 197.906 327.124 197.561 326.552 197.445C325.636 196.869 324.949 196.063 324.376 195.256C321.056 191.454 315.561 190.647 311.211 193.297C308.005 195.486 306.288 199.289 303.541 201.939C302.167 203.322 300.45 204.474 299.076 205.857C296.214 208.853 294.382 212.655 293.81 216.803C293.237 220.836 293.008 224.984 293.352 229.132C293.352 230.4 293.466 231.667 293.924 232.82C294.382 233.741 294.955 234.663 295.641 235.47C299.076 240.079 303.77 243.536 309.15 245.725C314.531 247.684 320.827 247.453 325.636 244.342C326.094 244.112 326.552 243.651 326.781 243.19C327.009 242.499 327.009 241.692 326.781 241.001C326.208 238.12 326.437 235.124 327.582 232.474C328.498 230.63 329.414 228.672 330.101 226.713C330.558 224.408 330.673 222.104 330.329 219.799C329.643 213.577 328.612 207.585 329.528 201.709Z" fill="url(#paint10_linear)"/>
</g>
<path d="M442.265 149.099C454.683 156.623 470.86 152.64 478.397 140.202C485.933 127.764 481.975 111.581 469.557 104.057C457.138 96.5318 440.961 100.515 433.425 112.953C425.888 125.391 429.846 141.574 442.265 149.099Z" fill="url(#paint11_linear)"/>
<path opacity="0.1" d="M467.677 99.0695C455.172 91.4919 439.159 95.3996 431.545 107.966C423.931 120.532 427.839 136.509 440.385 144.112C452.932 151.714 468.903 147.781 476.517 135.215C484.131 122.649 480.183 106.647 467.677 99.0695ZM446.195 142.612C437.192 137.157 434.422 125.829 439.885 116.812C445.349 107.795 456.673 105.007 465.675 110.462C474.678 115.917 477.448 127.245 471.985 136.262C466.521 145.278 455.197 148.067 446.195 142.612Z" fill="url(#paint12_linear)"/>
<path d="M442.487 148.732C454.795 156.636 471.005 152.402 478.421 140.162L478.095 139.965C476.506 139.002 474.412 139.518 473.122 140.912C469.751 145.005 464.964 147.849 459.991 148.796C455.867 149.812 451.359 149.255 447.134 147.588C445.546 146.625 443.451 147.141 442.487 148.732Z" fill="url(#paint13_linear)"/>
<path d="M469.358 104.384C457.05 96.4799 440.84 100.714 433.424 112.954L433.75 113.151C435.339 114.114 437.433 113.598 438.723 112.204C442.094 108.111 446.881 105.267 451.854 104.32C455.978 103.304 460.486 103.861 464.711 105.528C466.34 106.515 468.394 105.975 469.358 104.384Z" fill="url(#paint14_linear)"/>
<path d="M440.781 120.478C446.245 111.461 457.569 108.673 466.571 114.128C470.441 116.473 473.153 119.901 474.488 124.224C473.618 118.398 470.823 113.637 465.69 110.527C456.688 105.072 445.364 107.86 439.901 116.877C436.786 122.017 436.505 127.536 438.293 132.58C437.57 128.628 438.458 124.313 440.781 120.478Z" fill="url(#paint15_linear)"/>
<path d="M459.533 142.383C459.207 142.186 458.881 141.988 458.753 141.464C458.497 140.417 459.065 139.478 460.113 139.221C463.189 138.463 465.922 136.159 467.479 133.588C468.073 132.609 469.095 132.392 470.032 132.96C470.969 133.528 471.225 134.575 470.657 135.514C468.506 139.063 465.077 141.782 461.279 142.995C460.47 142.951 459.859 142.581 459.533 142.383Z" fill="url(#paint16_linear)"/>
<path d="M458.265 123.134L465.809 127.705L468.786 123.954L456.955 116.785L444.398 132.092L448.685 134.689L453.03 129.452L459.545 133.4L462.419 129.818L456.075 125.974L458.265 123.134Z" fill="url(#paint17_linear)"/>
<path d="M155.485 205.577C163.322 201.711 166.537 192.214 162.666 184.365C158.794 176.515 149.302 173.285 141.464 177.151C133.627 181.016 130.412 190.513 134.284 198.363C138.155 206.213 147.647 209.442 155.485 205.577Z" fill="url(#paint18_linear)"/>
<path opacity="0.1" d="M138.326 176.49C130.433 180.383 127.233 189.772 131.145 197.702C135.056 205.633 144.428 208.822 152.346 204.916C160.264 201.011 163.438 191.634 159.527 183.704C155.615 175.773 146.218 172.597 138.326 176.49ZM153.465 201.483C147.784 204.285 141.139 202.024 138.333 196.334C135.526 190.644 137.777 183.996 143.458 181.193C149.14 178.391 155.784 180.652 158.591 186.342C161.397 192.033 159.147 198.681 153.465 201.483Z" fill="url(#paint19_linear)"/>
<path d="M155.37 205.346C163.364 201.659 166.463 192.064 162.653 184.339L162.447 184.441C161.445 184.935 161.028 186.165 161.318 187.271C162.304 190.306 162.198 193.655 161.068 196.485C160.249 198.906 158.507 201.013 156.294 202.617C155.291 203.112 154.875 204.341 155.37 205.346Z" fill="url(#paint20_linear)"/>
<path d="M141.566 177.357C133.572 181.044 130.474 190.639 134.283 198.363L134.489 198.262C135.492 197.768 135.908 196.538 135.618 195.432C134.633 192.397 134.739 189.048 135.868 186.218C136.688 183.797 138.429 181.689 140.642 180.086C141.671 179.578 142.061 178.361 141.566 177.357Z" fill="url(#paint21_linear)"/>
<path d="M140.483 197.066C137.676 191.375 139.927 184.727 145.608 181.925C148.051 180.721 150.668 180.454 153.293 181.176C150.056 179.731 146.735 179.609 143.496 181.206C137.814 184.009 135.564 190.657 138.37 196.347C139.97 199.591 142.68 201.52 145.818 202.245C143.578 201.333 141.676 199.486 140.483 197.066Z" fill="url(#paint22_linear)"/>
<path d="M157.666 194.642C157.461 194.743 157.255 194.845 156.948 194.74C156.333 194.531 156.041 193.939 156.249 193.324C156.861 191.518 156.576 189.385 155.776 187.763C155.471 187.145 155.692 186.556 156.283 186.264C156.875 185.973 157.489 186.182 157.781 186.774C158.886 189.014 159.156 191.634 158.542 193.954C158.258 194.35 157.872 194.54 157.666 194.642Z" fill="url(#paint23_linear)"/>
<path d="M147.489 189.054L152.251 186.706L151.311 183.982L143.844 187.664L147.546 198.99L150.252 197.655L149.001 193.756L153.113 191.727L152.225 189.11L148.222 191.084L147.489 189.054Z" fill="url(#paint24_linear)"/>
</g>
<defs>
<linearGradient id="paint0_linear" x1="89.5092" y1="285.273" x2="570.918" y2="285.273" gradientUnits="userSpaceOnUse">
<stop stop-color="#65C39D"/>
<stop offset="1" stop-color="#BBF061"/>
</linearGradient>
<linearGradient id="paint1_linear" x1="116.773" y1="285.275" x2="548.648" y2="285.275" gradientUnits="userSpaceOnUse">
<stop stop-color="#65C39D"/>
<stop offset="1" stop-color="#BBF061"/>
</linearGradient>
<linearGradient id="paint2_linear" x1="122.426" y1="201.716" x2="469.784" y2="201.716" gradientUnits="userSpaceOnUse">
<stop stop-color="#9A26F6"/>
<stop offset="1" stop-color="#DA4999"/>
</linearGradient>
<linearGradient id="paint3_linear" x1="346.425" y1="66.5957" x2="406.468" y2="66.5957" gradientUnits="userSpaceOnUse">
<stop stop-color="#9A26F6"/>
<stop offset="1" stop-color="#DA4999"/>
</linearGradient>
<linearGradient id="paint4_linear" x1="189.759" y1="210.574" x2="227.46" y2="210.574" gradientUnits="userSpaceOnUse">
<stop stop-color="#9A26F6"/>
<stop offset="1" stop-color="#DA4999"/>
</linearGradient>
<linearGradient id="paint5_linear" x1="404.922" y1="303.316" x2="279.372" y2="118.089" gradientUnits="userSpaceOnUse">
<stop stop-color="#F8CA7A"/>
<stop offset="1" stop-color="#E95680"/>
</linearGradient>
<linearGradient id="paint6_linear" x1="274.965" y1="356.358" x2="422.365" y2="341.223" gradientUnits="userSpaceOnUse">
<stop stop-color="#808080" stop-opacity="0.25"/>
<stop offset="0.54" stop-color="#808080" stop-opacity="0.12"/>
<stop offset="1" stop-color="#808080" stop-opacity="0.1"/>
</linearGradient>
<linearGradient id="paint7_linear" x1="365.227" y1="142.403" x2="424.791" y2="174.541" gradientUnits="userSpaceOnUse">
<stop stop-color="#F8CA7A"/>
<stop offset="1" stop-color="#E95680"/>
</linearGradient>
<linearGradient id="paint8_linear" x1="280.444" y1="148.458" x2="324.41" y2="163.566" gradientUnits="userSpaceOnUse">
<stop stop-color="#F8CA7A"/>
<stop offset="1" stop-color="#E95680"/>
</linearGradient>
<linearGradient id="paint9_linear" x1="390.677" y1="211.482" x2="293.207" y2="318.003" gradientUnits="userSpaceOnUse">
<stop stop-color="#86D1E9"/>
<stop offset="0.644733" stop-color="#001AFF"/>
</linearGradient>
<linearGradient id="paint10_linear" x1="292.948" y1="219.429" x2="330.392" y2="219.429" gradientUnits="userSpaceOnUse">
<stop stop-color="#9A26F6"/>
<stop offset="1" stop-color="#DA4999"/>
</linearGradient>
<linearGradient id="paint11_linear" x1="456.262" y1="154.931" x2="455.616" y2="104.642" gradientUnits="userSpaceOnUse">
<stop stop-color="#F8CA7A"/>
<stop offset="0.1618" stop-color="#F4AD7B"/>
<stop offset="0.411" stop-color="#EF887D"/>
<stop offset="0.6419" stop-color="#EC6C7F"/>
<stop offset="0.8454" stop-color="#EA5C80"/>
<stop offset="1" stop-color="#E95680"/>
</linearGradient>
<linearGradient id="paint12_linear" x1="431.569" y1="107.932" x2="476.502" y2="135.158" gradientUnits="userSpaceOnUse">
<stop stop-color="#F8CA7A"/>
<stop offset="0.1618" stop-color="#F4AD7B"/>
<stop offset="0.411" stop-color="#EF887D"/>
<stop offset="0.6419" stop-color="#EC6C7F"/>
<stop offset="0.8454" stop-color="#EA5C80"/>
<stop offset="1" stop-color="#E95680"/>
</linearGradient>
<linearGradient id="paint13_linear" x1="449.215" y1="137.662" x2="471.682" y2="151.275" gradientUnits="userSpaceOnUse">
<stop stop-color="#F8CA7A"/>
<stop offset="0.1618" stop-color="#F4AD7B"/>
<stop offset="0.411" stop-color="#EF887D"/>
<stop offset="0.6419" stop-color="#EC6C7F"/>
<stop offset="0.8454" stop-color="#EA5C80"/>
<stop offset="1" stop-color="#E95680"/>
</linearGradient>
<linearGradient id="paint14_linear" x1="440.192" y1="101.862" x2="462.659" y2="115.475" gradientUnits="userSpaceOnUse">
<stop stop-color="#F8CA7A"/>
<stop offset="0.1618" stop-color="#F4AD7B"/>
<stop offset="0.411" stop-color="#EF887D"/>
<stop offset="0.6419" stop-color="#EC6C7F"/>
<stop offset="0.8454" stop-color="#EA5C80"/>
<stop offset="1" stop-color="#E95680"/>
</linearGradient>
<linearGradient id="paint15_linear" x1="454.959" y1="104.939" x2="455.278" y2="112.193" gradientUnits="userSpaceOnUse">
<stop stop-color="#F8CA7A"/>
<stop offset="0.1618" stop-color="#F4AD7B"/>
<stop offset="0.411" stop-color="#EF887D"/>
<stop offset="0.6419" stop-color="#EC6C7F"/>
<stop offset="0.8454" stop-color="#EA5C80"/>
<stop offset="1" stop-color="#E95680"/>
</linearGradient>
<linearGradient id="paint16_linear" x1="461.589" y1="135.706" x2="468.169" y2="139.693" gradientUnits="userSpaceOnUse">
<stop stop-color="#F8CA7A"/>
<stop offset="0.1618" stop-color="#F4AD7B"/>
<stop offset="0.411" stop-color="#EF887D"/>
<stop offset="0.6419" stop-color="#EC6C7F"/>
<stop offset="0.8454" stop-color="#EA5C80"/>
<stop offset="1" stop-color="#E95680"/>
</linearGradient>
<linearGradient id="paint17_linear" x1="457.971" y1="118.721" x2="461.935" y2="135.557" gradientUnits="userSpaceOnUse">
<stop stop-color="#F8CA7A"/>
<stop offset="1" stop-color="#E95680"/>
</linearGradient>
<linearGradient id="paint18_linear" x1="162.974" y1="200.363" x2="137.249" y2="184.413" gradientUnits="userSpaceOnUse">
<stop stop-color="#F8CA7A"/>
<stop offset="0.1618" stop-color="#F4AD7B"/>
<stop offset="0.411" stop-color="#EF887D"/>
<stop offset="0.6419" stop-color="#EC6C7F"/>
<stop offset="0.8454" stop-color="#EA5C80"/>
<stop offset="1" stop-color="#E95680"/>
</linearGradient>
<linearGradient id="paint19_linear" x1="131.136" y1="197.679" x2="159.493" y2="183.693" gradientUnits="userSpaceOnUse">
<stop stop-color="#F8CA7A"/>
<stop offset="0.1618" stop-color="#F4AD7B"/>
<stop offset="0.411" stop-color="#EF887D"/>
<stop offset="0.6419" stop-color="#EC6C7F"/>
<stop offset="0.8454" stop-color="#EA5C80"/>
<stop offset="1" stop-color="#E95680"/>
</linearGradient>
<linearGradient id="paint20_linear" x1="151.931" y1="198.349" x2="166.11" y2="191.356" gradientUnits="userSpaceOnUse">
<stop stop-color="#F8CA7A"/>
<stop offset="0.1618" stop-color="#F4AD7B"/>
<stop offset="0.411" stop-color="#EF887D"/>
<stop offset="0.6419" stop-color="#EC6C7F"/>
<stop offset="0.8454" stop-color="#EA5C80"/>
<stop offset="1" stop-color="#E95680"/>
</linearGradient>
<linearGradient id="paint21_linear" x1="130.846" y1="191.339" x2="145.025" y2="184.346" gradientUnits="userSpaceOnUse">
<stop stop-color="#F8CA7A"/>
<stop offset="0.1618" stop-color="#F4AD7B"/>
<stop offset="0.411" stop-color="#EF887D"/>
<stop offset="0.6419" stop-color="#EC6C7F"/>
<stop offset="0.8454" stop-color="#EA5C80"/>
<stop offset="1" stop-color="#E95680"/>
</linearGradient>
<linearGradient id="paint22_linear" x1="137.187" y1="184.843" x2="140.971" y2="187.029" gradientUnits="userSpaceOnUse">
<stop stop-color="#F8CA7A"/>
<stop offset="0.1618" stop-color="#F4AD7B"/>
<stop offset="0.411" stop-color="#EF887D"/>
<stop offset="0.6419" stop-color="#EC6C7F"/>
<stop offset="0.8454" stop-color="#EA5C80"/>
<stop offset="1" stop-color="#E95680"/>
</linearGradient>
<linearGradient id="paint23_linear" x1="154.944" y1="191.437" x2="159.096" y2="189.389" gradientUnits="userSpaceOnUse">
<stop stop-color="#F8CA7A"/>
<stop offset="0.1618" stop-color="#F4AD7B"/>
<stop offset="0.411" stop-color="#EF887D"/>
<stop offset="0.6419" stop-color="#EC6C7F"/>
<stop offset="0.8454" stop-color="#EA5C80"/>
<stop offset="1" stop-color="#E95680"/>
</linearGradient>
<linearGradient id="paint24_linear" x1="145.155" y1="187.775" x2="154.981" y2="191.214" gradientUnits="userSpaceOnUse">
<stop stop-color="#F8CA7A"/>
<stop offset="1" stop-color="#E95680"/>
</linearGradient>
</defs>
</svg>
