<svg width="490" height="360" viewBox="0 0 490 360" fill="none" xmlns="http://www.w3.org/2000/svg">
<mask id="mask0" mask-type="alpha" maskUnits="userSpaceOnUse" x="0" y="0" width="490" height="360">
<rect y="3.05176e-05" width="490" height="360" fill="#C4C4C4"/>
</mask>
<g mask="url(#mask0)">
<path d="M411.56 325.171C425.64 333.702 443.981 329.187 452.526 315.084C461.071 300.982 456.584 282.634 442.503 274.102C428.423 265.571 410.082 270.087 401.537 284.189C392.992 298.291 397.479 316.639 411.56 325.171Z" fill="url(#paint0_linear)"/>
<path opacity="0.1" d="M440.373 268.448C426.193 259.856 408.039 264.287 399.406 278.534C390.773 292.782 395.204 310.897 409.429 319.516C423.654 328.136 441.762 323.677 450.395 309.43C459.028 295.183 454.552 277.039 440.373 268.448ZM416.016 317.816C405.809 311.631 402.667 298.787 408.862 288.564C415.056 278.341 427.895 275.18 438.102 281.365C448.309 287.549 451.451 300.394 445.256 310.616C439.062 320.839 426.223 324.001 416.016 317.816Z" fill="url(#paint1_linear)"/>
<path d="M411.811 324.755C425.766 333.717 444.145 328.916 452.553 315.039L452.184 314.815C450.382 313.724 448.008 314.308 446.545 315.889C442.723 320.529 437.296 323.755 431.657 324.828C426.981 325.979 421.87 325.349 417.08 323.458C415.279 322.367 412.904 322.951 411.811 324.755Z" fill="url(#paint2_linear)"/>
<path d="M442.278 274.473C428.324 265.512 409.945 270.312 401.536 284.19L401.906 284.414C403.707 285.505 406.082 284.92 407.544 283.34C411.367 278.7 416.794 275.474 422.432 274.401C427.108 273.25 432.219 273.88 437.009 275.771C438.857 276.89 441.185 276.277 442.278 274.473Z" fill="url(#paint3_linear)"/>
<path d="M409.878 292.721C416.073 282.498 428.912 279.337 439.119 285.522C443.506 288.18 446.581 292.067 448.095 296.968C447.109 290.363 443.939 284.964 438.12 281.438C427.913 275.253 415.074 278.415 408.88 288.638C405.348 294.466 405.029 300.724 407.057 306.443C406.237 301.961 407.243 297.069 409.878 292.721Z" fill="url(#paint4_linear)"/>
<path d="M431.138 317.557C430.768 317.333 430.399 317.109 430.254 316.515C429.963 315.327 430.608 314.263 431.795 313.971C435.283 313.112 438.382 310.5 440.148 307.585C440.82 306.475 441.98 306.229 443.042 306.873C444.104 307.516 444.395 308.704 443.75 309.768C441.312 313.793 437.423 316.875 433.117 318.25C432.2 318.201 431.507 317.781 431.138 317.557Z" fill="url(#paint5_linear)"/>
<path d="M429.701 295.732L438.255 300.915L441.63 296.661L428.216 288.534L413.979 305.889L418.839 308.833L423.766 302.896L431.153 307.372L434.412 303.31L427.219 298.952L429.701 295.732Z" fill="url(#paint6_linear)"/>
<path d="M372.787 76.1993C383.897 73.2242 390.487 61.7923 387.507 50.6654C384.528 39.5385 373.106 32.9302 361.997 35.9052C350.887 38.8802 344.296 50.3121 347.276 61.439C350.256 72.5659 361.677 79.1743 372.787 76.1993Z" fill="url(#paint7_linear)"/>
<path opacity="0.1" d="M358.116 34.2456C346.928 37.2415 340.385 48.538 343.395 59.7794C346.406 71.0209 357.682 77.5453 368.906 74.5397C380.13 71.534 386.637 60.2473 383.627 49.0058C380.616 37.7644 369.303 31.2497 358.116 34.2456ZM371.233 70.3961C363.18 72.5527 355.184 67.9268 353.024 59.8607C350.864 51.7946 355.478 43.7921 363.531 41.6354C371.585 39.4788 379.58 44.1047 381.74 52.1708C383.9 60.2369 379.287 68.2394 371.233 70.3961Z" fill="url(#paint8_linear)"/>
<path d="M372.7 75.8714C383.966 73.1674 390.431 61.579 387.499 50.6295L387.207 50.7076C385.786 51.0882 384.932 52.5684 385.022 54.0699C385.514 58.2409 384.517 62.5369 382.332 65.8992C380.652 68.8134 377.862 71.0859 374.593 72.5871C373.172 72.9677 372.319 74.4479 372.7 75.8714Z" fill="url(#paint9_linear)"/>
<path d="M362.076 36.1978C350.81 38.9018 344.345 50.4902 347.277 61.4397L347.568 61.3616C348.99 60.981 349.843 59.5008 349.753 57.9993C349.261 53.8283 350.259 49.5323 352.444 46.17C354.124 43.2558 356.913 40.9834 360.182 39.4821C361.64 39.0917 362.457 37.6213 362.076 36.1978Z" fill="url(#paint10_linear)"/>
<path d="M355.612 61.358C353.451 53.2919 358.065 45.2895 366.119 43.1328C369.58 42.2057 373.027 42.5344 376.23 44.141C372.423 41.4446 368.168 40.4325 363.577 41.6621C355.523 43.8188 350.91 51.8213 353.07 59.8874C354.301 64.4861 357.302 67.6722 361.167 69.4146C358.51 67.6617 356.53 64.7889 355.612 61.358Z" fill="url(#paint11_linear)"/>
<path d="M378.414 62.6457C378.122 62.7238 377.831 62.8018 377.461 62.5879C376.722 62.1601 376.497 61.3206 376.923 60.5805C378.177 58.4064 378.358 55.5809 377.742 53.2815C377.507 52.4055 377.944 51.7019 378.782 51.4774C379.62 51.253 380.359 51.6808 380.584 52.5203C381.435 55.6956 381.109 59.1468 379.72 61.9829C379.252 62.4212 378.705 62.5676 378.414 62.6457Z" fill="url(#paint12_linear)"/>
<path d="M366.714 52.8182L373.463 51.0108L372.95 47.2526L362.366 50.0868L364.234 65.6563L368.069 64.6295L367.457 59.2745L373.285 57.7136L372.813 54.1068L367.137 55.6266L366.714 52.8182Z" fill="url(#paint13_linear)"/>
<path d="M571.265 52.3242C569.376 52.3243 567.594 53.0799 566.245 54.3753L507.575 113.046L473.624 79.0957C470.872 76.343 466.392 76.343 463.639 79.0957L390.773 151.962L328.541 89.7827C325.788 87.03 321.308 87.03 318.555 89.7827L196.141 212.197L196.141 200.971C196.141 197.084 192.956 193.9 189.07 193.9C185.184 193.9 181.999 197.084 181.999 200.971L181.999 229.253C181.999 230.117 182.161 230.927 182.485 231.736C182.593 231.952 182.701 232.222 182.809 232.438C183.079 232.978 183.403 233.463 183.78 233.895C184.428 234.651 185.238 235.298 186.155 235.676C186.209 235.676 186.263 235.784 186.317 235.784C187.127 236.108 187.936 236.27 188.8 236.27C188.908 236.27 188.962 236.324 189.07 236.324L217.407 236.324C221.293 236.324 224.477 233.139 224.477 229.253C224.477 225.367 221.293 222.183 217.407 222.183L206.18 222.183L323.521 104.788L385.754 167.02C388.506 169.773 392.986 169.773 395.739 167.02L468.605 94.1546L502.555 128.105C505.308 130.857 509.788 130.857 512.54 128.105L576.23 64.4146C578.983 61.6619 578.983 57.182 576.23 54.4293C574.935 53.0799 573.1 52.3242 571.265 52.3242Z" fill="url(#paint14_linear)"/>
<path opacity="0.15" d="M575.312 61.8773C573.422 61.8773 571.641 62.6329 570.292 63.9283L511.567 122.653L477.617 88.7027C474.865 85.95 470.385 85.95 467.632 88.7027L394.766 161.569L332.533 99.3357C329.781 96.583 325.301 96.583 322.548 99.3357L200.187 221.75L200.187 210.524C200.187 206.637 197.003 203.453 193.117 203.453C189.231 203.453 186.046 206.637 186.046 210.524L186.046 238.86C186.046 239.724 186.208 240.534 186.532 241.343C186.64 241.559 186.748 241.829 186.856 242.045C187.126 242.585 187.449 243.07 187.827 243.502C188.475 244.258 189.285 244.906 190.202 245.283C190.256 245.283 190.31 245.391 190.364 245.391C191.174 245.715 191.983 245.877 192.847 245.877C192.955 245.877 193.009 245.931 193.117 245.931L221.454 245.931C225.34 245.931 228.524 242.747 228.524 238.86C228.524 234.974 225.34 231.79 221.454 231.79L210.227 231.79L327.568 114.395L389.801 176.627C392.553 179.38 397.033 179.38 399.786 176.627L472.652 103.762L506.602 137.712C509.355 140.464 513.834 140.464 516.587 137.712L580.277 74.0216C583.03 71.2689 583.03 66.789 580.277 64.0363C578.982 62.6329 577.147 61.8773 575.312 61.8773Z" fill="url(#paint15_linear)"/>
<path opacity="0.15" d="M579.361 71.4852C577.472 71.4852 575.691 72.2409 574.342 73.5363L515.671 132.207L481.721 98.2567C478.968 95.504 474.489 95.504 471.736 98.2567L398.87 171.123L336.637 108.89C333.885 106.137 329.405 106.137 326.652 108.89L204.237 231.304L204.237 220.078C204.237 216.191 201.053 213.007 197.167 213.007C193.28 213.007 190.096 216.191 190.096 220.078L190.096 248.414C190.096 249.278 190.258 250.088 190.582 250.897C190.69 251.113 190.798 251.383 190.906 251.599C191.175 252.139 191.499 252.624 191.877 253.056C192.525 253.812 193.334 254.459 194.252 254.837C194.306 254.837 194.36 254.945 194.414 254.945C195.224 255.269 196.033 255.431 196.897 255.431C197.005 255.431 197.059 255.485 197.167 255.485L225.503 255.485C229.39 255.485 232.52 252.3 232.52 248.414C232.52 244.528 229.336 241.344 225.449 241.344L214.223 241.344L331.618 123.949L393.85 186.181C396.603 188.934 401.083 188.934 403.836 186.181L476.702 113.316L510.652 147.266C513.404 150.018 517.884 150.018 520.637 147.266L584.327 83.5756C587.08 80.8228 587.08 76.3429 584.327 73.5902C583.032 72.1869 581.197 71.4852 579.361 71.4852Z" fill="url(#paint16_linear)"/>
<path d="M87.1259 338.485C89.015 338.485 90.7962 337.729 92.1456 336.434L150.816 277.764L184.766 311.714C187.519 314.466 191.999 314.466 194.751 311.714L267.617 238.848L329.85 301.027C332.603 303.779 337.083 303.779 339.835 301.027L462.25 178.612V189.839C462.25 193.725 465.435 196.909 469.321 196.909C473.207 196.909 476.391 193.725 476.391 189.839V161.556C476.391 160.692 476.229 159.883 475.906 159.073C475.798 158.857 475.69 158.587 475.582 158.371C475.312 157.832 474.988 157.346 474.61 156.914C473.962 156.159 473.153 155.511 472.235 155.133C472.181 155.133 472.127 155.025 472.073 155.025C471.264 154.701 470.454 154.539 469.591 154.539C469.483 154.539 469.429 154.485 469.321 154.485H440.984C437.098 154.485 433.913 157.67 433.913 161.556C433.913 165.442 437.098 168.627 440.984 168.627H452.211L334.87 286.022L272.637 223.789C269.884 221.036 265.404 221.036 262.652 223.789L189.786 296.655L155.836 262.705C153.083 259.952 148.603 259.952 145.85 262.705L82.1602 326.395C79.4075 329.147 79.4075 333.627 82.1602 336.38C83.4556 337.729 85.2908 338.485 87.1259 338.485Z" fill="url(#paint17_linear)"/>
<path opacity="0.15" d="M83.079 328.932C84.9681 328.932 86.7493 328.176 88.0987 326.881L146.823 268.156L180.773 302.107C183.526 304.859 188.006 304.859 190.759 302.107L263.624 229.241L325.857 291.474C328.61 294.226 333.09 294.226 335.842 291.474L458.203 169.059V180.286C458.203 184.172 461.388 187.356 465.274 187.356C469.16 187.356 472.344 184.172 472.344 180.286V151.949C472.344 151.085 472.183 150.276 471.859 149.466C471.751 149.25 471.643 148.98 471.535 148.764C471.265 148.225 470.941 147.739 470.563 147.307C469.916 146.551 469.106 145.904 468.188 145.526C468.134 145.526 468.08 145.418 468.026 145.418C467.217 145.094 466.407 144.932 465.544 144.932C465.436 144.932 465.382 144.878 465.274 144.878H436.937C433.051 144.878 429.866 148.063 429.866 151.949C429.866 155.835 433.051 159.02 436.937 159.02H448.164L330.823 276.415L268.59 214.182C265.837 211.429 261.357 211.429 258.605 214.182L185.739 287.048L151.789 253.098C149.036 250.345 144.556 250.345 141.803 253.098L78.1134 316.788C75.3607 319.54 75.3607 324.02 78.1134 326.773C79.4088 328.176 81.2439 328.932 83.079 328.932Z" fill="url(#paint18_linear)"/>
<path opacity="0.15" d="M79.0302 319.324C80.9193 319.324 82.7005 318.568 84.0498 317.273L142.72 258.602L176.67 292.553C179.423 295.305 183.903 295.305 186.656 292.553L259.522 219.687L321.754 281.92C324.507 284.672 328.987 284.672 331.74 281.92L454.154 159.505V170.732C454.154 174.618 457.339 177.802 461.225 177.802C465.111 177.802 468.296 174.618 468.296 170.732V142.395C468.296 141.531 468.134 140.722 467.81 139.912C467.702 139.696 467.594 139.426 467.486 139.21C467.216 138.671 466.892 138.185 466.514 137.753C465.867 136.997 465.057 136.35 464.14 135.972C464.086 135.972 464.032 135.864 463.978 135.864C463.168 135.54 462.358 135.378 461.495 135.378C461.387 135.378 461.333 135.324 461.225 135.324H432.888C429.002 135.324 425.872 138.509 425.872 142.395C425.872 146.281 429.056 149.466 432.942 149.466H444.169L326.774 266.861L264.541 204.628C261.788 201.875 257.309 201.875 254.556 204.628L181.69 277.494L147.74 243.544C144.987 240.791 140.507 240.791 137.755 243.544L74.0645 307.234C71.3118 309.986 71.3118 314.466 74.0645 317.219C75.3599 318.622 77.1951 319.324 79.0302 319.324Z" fill="url(#paint19_linear)"/>
<g clip-path="url(#clip0)">
<path d="M296.802 314.327L299.365 312.445C299.365 312.445 301.047 321.895 299.165 323.297C297.282 324.698 290.195 327.061 290.195 329.904C290.195 332.747 274.137 336.511 273.697 332.267C273.256 328.022 275.098 325.659 275.098 325.659C275.098 325.659 282.667 318.091 283.588 316.69C284.509 315.288 286.871 312.445 286.871 312.445L296.802 314.327Z" fill="url(#paint20_linear)"/>
<path d="M257.639 287.418C257.639 287.418 253.875 283.654 251.992 287.418C250.11 291.182 248.228 305.838 244.905 309.122C241.581 312.405 237.337 328.943 242.062 329.904C246.787 330.865 251.952 328.503 252.433 325.66C252.913 322.816 262.804 308.201 262.804 306.799C262.804 305.398 256.197 300.192 256.197 300.192L257.639 287.418Z" fill="url(#paint21_linear)"/>
<path d="M282.666 88.7631C282.666 88.7631 284.548 95.8507 286.911 97.7328C289.273 99.6148 280.784 107.623 280.784 107.623L264.727 108.585L261.884 99.6148C261.884 99.6148 267.089 89.2436 265.648 82.6364C264.246 75.9893 282.666 88.7631 282.666 88.7631Z" fill="url(#paint22_linear)"/>
<path fill-rule="evenodd" clip-rule="evenodd" d="M308.134 231.237C309.575 226.072 315.702 170.852 315.702 170.852C311.712 167.599 285.302 171.262 271.689 173.15C267.542 173.725 264.582 174.136 263.806 174.136C260.495 174.136 259.092 196.625 259.081 196.799L259.08 196.8C259.08 196.8 259.16 197.2 259.281 197.961C259.401 198.642 259.561 199.603 259.721 200.764C259.806 201.285 259.897 201.85 259.995 202.454C262.172 215.861 267.472 248.508 267.089 249.657C267.01 249.887 266.856 250.22 266.67 250.621C265.721 252.665 263.943 256.494 267.089 257.666C267.449 257.786 267.85 258.226 268.25 258.947C268.664 259.733 269.045 260.53 269.39 261.343C266.49 266.141 264.286 270.432 264.286 271.841C264.286 275.165 257.239 282.253 255.797 283.654C254.932 284.495 255.105 285.855 255.278 287.215C255.393 288.121 255.509 289.028 255.317 289.781C254.836 291.663 253.875 296.428 254.356 299.231C254.836 302.034 262.885 306.279 263.806 304.877C264.727 303.476 271.814 296.388 271.814 296.388C271.814 296.388 274.993 293.21 276.968 291.576C277.217 293.032 277.391 294.206 277.46 294.986C277.5 295.307 277.5 295.627 277.46 295.907C276.98 297.789 280.303 304.396 281.705 306.278C282.059 306.754 282.474 307.229 282.89 307.705C284.119 309.111 285.348 310.518 284.988 311.925C284.508 313.807 296.801 319.012 298.203 315.689C299.054 313.67 299.388 312.183 299.627 311.12C299.781 310.433 299.896 309.924 300.085 309.562C300.565 308.641 301.046 301.994 298.683 301.073C297.481 300.604 297.253 296.089 297.014 291.33C296.783 286.74 296.54 281.922 295.4 280.29C294.599 279.209 293.397 275.485 292.156 271C292.061 270.651 291.964 270.298 291.867 269.941C291.727 269.432 291.586 268.915 291.445 268.396C293.971 264.094 296.043 260.602 296.802 259.548C299.164 256.264 306.692 236.403 308.134 231.237Z" fill="url(#paint23_linear)"/>
<path d="M277.461 92.0466C286.064 92.0466 293.038 85.0726 293.038 76.4697C293.038 67.8669 286.064 60.8929 277.461 60.8929C268.858 60.8929 261.884 67.8669 261.884 76.4697C261.884 85.0726 268.858 92.0466 277.461 92.0466Z" fill="url(#paint24_linear)"/>
<path d="M289.273 96.7717C289.273 96.7717 285.028 97.2522 284.067 98.6538C283.106 100.055 276.499 104.3 271.333 103.379C266.168 102.458 262.844 101.016 261.883 101.497C260.922 101.977 259.08 111.868 259.08 111.868L264.286 126.964L263.325 168.489L261.923 179.822C261.923 179.822 259.08 176.058 270.412 178.42C281.745 180.783 296.36 176.538 301.086 176.058C305.811 175.577 313.819 174.176 314.3 171.332C314.78 168.489 312.898 158.118 312.898 158.118L305.33 126.484L300.605 109.506L289.273 96.7717Z" fill="url(#paint25_linear)"/>
<path d="M284.788 94.6494C284.788 94.6494 288.792 92.5271 290.194 94.4092C291.595 96.2912 309.535 99.1343 309.535 100.536C309.535 101.937 313.299 140.179 312.378 143.462C311.457 146.746 314.26 150.55 314.26 150.55L317.544 164.725C317.544 164.725 326.513 191.634 322.749 192.555C318.985 193.476 315.661 192.555 314.26 192.555C312.858 192.555 313.299 174.616 309.535 169.891C305.771 165.166 300.565 153.393 299.644 151.03C298.723 148.668 286.91 116.113 287.391 112.349C287.871 108.584 284.788 94.6494 284.788 94.6494Z" fill="url(#paint26_linear)"/>
<path d="M265.206 96.7717C265.206 96.7717 261.442 96.7717 260.962 97.7328C260.481 98.6938 255.756 104.82 253.874 106.222C251.992 107.623 245.385 113.79 245.385 115.192C245.385 116.593 259.08 127.004 259.08 127.004C259.08 127.004 264.726 154.835 261.923 164.285C259.12 173.735 254.835 196.36 256.717 197.801C258.599 199.243 262.844 199.683 262.844 197.801C262.844 195.919 265.687 175.617 268.049 171.372C270.412 167.128 277.5 140.219 274.656 132.691C271.813 125.162 265.206 96.7717 265.206 96.7717Z" fill="url(#paint27_linear)"/>
<path d="M327.474 143.502C327.474 143.502 327.955 158.118 322.749 165.686C317.544 173.255 314.26 181.744 314.26 181.744C314.26 181.744 305.771 179.381 304.369 176.538C302.968 173.695 293.998 176.058 293.998 175.137C293.998 174.216 304.85 169.49 305.811 168.529C306.772 167.568 310.055 167.568 311.937 165.686C313.82 163.804 314.3 159.56 314.3 159.56L316.182 147.306L327.474 143.502Z" fill="url(#paint28_linear)"/>
<path opacity="0.1" d="M287.31 197.2C287.31 197.2 285.708 243.29 284.787 244.732C283.866 246.173 284.787 197.08 284.787 197.08L287.31 197.2Z" fill="black"/>
<path d="M305.771 100.536H309.535C309.535 100.536 325.592 122.239 323.71 123.641C321.828 125.042 323.71 128.846 323.71 128.846L327.474 135.934C327.474 135.934 332.199 140.179 330.758 141.14C329.316 142.101 327.474 145.865 327.474 145.865C327.474 145.865 318.024 144.463 315.221 150.109L309.094 142.381L305.771 100.536Z" fill="url(#paint29_linear)"/>
<path d="M307.109 107.544L294.155 112.893L304.121 137.025L317.075 131.676L307.109 107.544Z" fill="url(#paint30_linear)"/>
<path d="M305.593 121.687C307.024 121.096 307.746 119.557 307.206 118.249C306.666 116.94 305.068 116.359 303.637 116.95C302.206 117.541 301.484 119.08 302.024 120.388C302.564 121.697 304.162 122.278 305.593 121.687Z" fill="url(#paint31_linear)"/>
<path d="M296.36 138.297C296.36 138.297 262.404 166.607 256.718 157.638C251.031 148.668 262.844 141.14 262.844 141.14C262.844 141.14 273.215 141.62 285.028 134.052L296.841 128.846C296.841 128.846 307.613 113.47 311.297 119.316C314.981 125.162 305.01 135.373 296.36 138.297Z" fill="url(#paint32_linear)"/>
<path d="M250.591 113.27L245.385 115.152V129.327L243.503 132.17C243.503 132.17 243.983 137.816 245.385 139.258C246.786 140.699 249.63 140.219 248.669 143.502C248.108 145.665 247.948 147.907 248.188 150.109C248.188 150.109 256.677 160.961 257.158 159.56C257.638 158.158 264.245 140.699 265.166 140.699C266.127 140.699 255.716 113.31 255.716 113.31H250.591V113.27Z" fill="url(#paint33_linear)"/>
<path d="M312.619 184.787C312.619 184.787 317.504 180.062 315.061 179.822C312.619 179.581 304.129 174.856 302.728 177.219C301.326 179.581 312.619 184.787 312.619 184.787Z" fill="#2F2E41"/>
<path d="M297.362 61.8539C297.162 61.4935 296.962 61.0531 296.722 60.7327C295.961 59.8518 294.759 59.2911 294.079 58.3301C293.158 57.0487 293.238 55.2868 292.837 53.6851C292.317 51.6829 290.835 50.0812 288.833 49.2803C286.871 48.6797 284.749 49.0801 283.267 50.4015C282.546 50.9621 281.946 51.723 281.305 52.4437C280.024 52.2836 278.742 52.3236 277.461 52.4037C277.1 52.4437 276.74 52.4437 276.38 52.4838C274.978 51.4426 273.176 50.882 271.294 51.0422C268.851 51.4426 266.809 52.9643 265.688 55.0065C263.245 56.1678 261.043 57.8896 259.521 60.092C256.478 64.4968 256.438 70.4232 258.12 75.4687C258.44 76.3897 258.761 77.2706 259.161 78.1516C259.201 78.592 259.241 79.0726 259.321 79.513C259.641 81.7955 261.003 83.7977 262.885 85.1591C263.045 85.2793 263.205 85.3594 263.365 85.3994C264.246 86.7208 265.207 88.0022 266.128 89.2836L267.77 81.355C267.93 80.6343 268.091 79.8734 268.691 79.473C270.133 78.4319 271.935 80.5542 273.737 80.5542C274.898 80.5542 275.859 79.5931 276.299 78.552C276.74 77.4708 276.78 76.3096 276.86 75.1483C276.94 74.1072 277.14 72.9459 277.541 71.7847C279.022 72.6256 280.584 73.2663 282.266 73.6267C284.228 73.9871 286.27 73.6267 287.832 72.5054C288.953 71.6245 289.634 70.3431 290.955 69.7024C292.117 69.1018 293.358 69.1018 294.639 68.5812C297.242 67.5 298.524 64.4567 297.362 61.8539Z" fill="url(#paint34_linear)"/>
</g>
</g>
<defs>
<linearGradient id="paint0_linear" x1="427.43" y1="331.783" x2="426.698" y2="274.765" gradientUnits="userSpaceOnUse">
<stop stop-color="#F8CA7A"/>
<stop offset="0.1618" stop-color="#F4AD7B"/>
<stop offset="0.411" stop-color="#EF887D"/>
<stop offset="0.6419" stop-color="#EC6C7F"/>
<stop offset="0.8454" stop-color="#EA5C80"/>
<stop offset="1" stop-color="#E95680"/>
</linearGradient>
<linearGradient id="paint1_linear" x1="399.433" y1="278.496" x2="450.378" y2="309.365" gradientUnits="userSpaceOnUse">
<stop stop-color="#F8CA7A"/>
<stop offset="0.1618" stop-color="#F4AD7B"/>
<stop offset="0.411" stop-color="#EF887D"/>
<stop offset="0.6419" stop-color="#EC6C7F"/>
<stop offset="0.8454" stop-color="#EA5C80"/>
<stop offset="1" stop-color="#E95680"/>
</linearGradient>
<linearGradient id="paint2_linear" x1="419.439" y1="312.204" x2="444.912" y2="327.639" gradientUnits="userSpaceOnUse">
<stop stop-color="#F8CA7A"/>
<stop offset="0.1618" stop-color="#F4AD7B"/>
<stop offset="0.411" stop-color="#EF887D"/>
<stop offset="0.6419" stop-color="#EC6C7F"/>
<stop offset="0.8454" stop-color="#EA5C80"/>
<stop offset="1" stop-color="#E95680"/>
</linearGradient>
<linearGradient id="paint3_linear" x1="409.21" y1="271.614" x2="434.682" y2="287.048" gradientUnits="userSpaceOnUse">
<stop stop-color="#F8CA7A"/>
<stop offset="0.1618" stop-color="#F4AD7B"/>
<stop offset="0.411" stop-color="#EF887D"/>
<stop offset="0.6419" stop-color="#EC6C7F"/>
<stop offset="0.8454" stop-color="#EA5C80"/>
<stop offset="1" stop-color="#E95680"/>
</linearGradient>
<linearGradient id="paint4_linear" x1="425.952" y1="275.103" x2="426.314" y2="283.327" gradientUnits="userSpaceOnUse">
<stop stop-color="#F8CA7A"/>
<stop offset="0.1618" stop-color="#F4AD7B"/>
<stop offset="0.411" stop-color="#EF887D"/>
<stop offset="0.6419" stop-color="#EC6C7F"/>
<stop offset="0.8454" stop-color="#EA5C80"/>
<stop offset="1" stop-color="#E95680"/>
</linearGradient>
<linearGradient id="paint5_linear" x1="433.469" y1="309.987" x2="440.929" y2="314.507" gradientUnits="userSpaceOnUse">
<stop stop-color="#F8CA7A"/>
<stop offset="0.1618" stop-color="#F4AD7B"/>
<stop offset="0.411" stop-color="#EF887D"/>
<stop offset="0.6419" stop-color="#EC6C7F"/>
<stop offset="0.8454" stop-color="#EA5C80"/>
<stop offset="1" stop-color="#E95680"/>
</linearGradient>
<linearGradient id="paint6_linear" x1="429.368" y1="290.729" x2="433.862" y2="309.818" gradientUnits="userSpaceOnUse">
<stop stop-color="#F8CA7A"/>
<stop offset="1" stop-color="#E95680"/>
</linearGradient>
<linearGradient id="paint7_linear" x1="383.794" y1="71.3939" x2="354.689" y2="44.1958" gradientUnits="userSpaceOnUse">
<stop stop-color="#F8CA7A"/>
<stop offset="0.1618" stop-color="#F4AD7B"/>
<stop offset="0.411" stop-color="#EF887D"/>
<stop offset="0.6419" stop-color="#EC6C7F"/>
<stop offset="0.8454" stop-color="#EA5C80"/>
<stop offset="1" stop-color="#E95680"/>
</linearGradient>
<linearGradient id="paint8_linear" x1="343.389" y1="59.7472" x2="383.586" y2="48.983" gradientUnits="userSpaceOnUse">
<stop stop-color="#F8CA7A"/>
<stop offset="0.1618" stop-color="#F4AD7B"/>
<stop offset="0.411" stop-color="#EF887D"/>
<stop offset="0.6419" stop-color="#EC6C7F"/>
<stop offset="0.8454" stop-color="#EA5C80"/>
<stop offset="1" stop-color="#E95680"/>
</linearGradient>
<linearGradient id="paint9_linear" x1="370.059" y1="65.9565" x2="390.157" y2="60.5744" gradientUnits="userSpaceOnUse">
<stop stop-color="#F8CA7A"/>
<stop offset="0.1618" stop-color="#F4AD7B"/>
<stop offset="0.411" stop-color="#EF887D"/>
<stop offset="0.6419" stop-color="#EC6C7F"/>
<stop offset="0.8454" stop-color="#EA5C80"/>
<stop offset="1" stop-color="#E95680"/>
</linearGradient>
<linearGradient id="paint10_linear" x1="344.646" y1="51.4902" x2="364.744" y2="46.108" gradientUnits="userSpaceOnUse">
<stop stop-color="#F8CA7A"/>
<stop offset="0.1618" stop-color="#F4AD7B"/>
<stop offset="0.411" stop-color="#EF887D"/>
<stop offset="0.6419" stop-color="#EC6C7F"/>
<stop offset="0.8454" stop-color="#EA5C80"/>
<stop offset="1" stop-color="#E95680"/>
</linearGradient>
<linearGradient id="paint11_linear" x1="354.499" y1="44.7346" x2="358.821" y2="48.5284" gradientUnits="userSpaceOnUse">
<stop stop-color="#F8CA7A"/>
<stop offset="0.1618" stop-color="#F4AD7B"/>
<stop offset="0.411" stop-color="#EF887D"/>
<stop offset="0.6419" stop-color="#EC6C7F"/>
<stop offset="0.8454" stop-color="#EA5C80"/>
<stop offset="1" stop-color="#E95680"/>
</linearGradient>
<linearGradient id="paint12_linear" x1="375.724" y1="57.8098" x2="381.61" y2="56.2337" gradientUnits="userSpaceOnUse">
<stop stop-color="#F8CA7A"/>
<stop offset="0.1618" stop-color="#F4AD7B"/>
<stop offset="0.411" stop-color="#EF887D"/>
<stop offset="0.6419" stop-color="#EC6C7F"/>
<stop offset="0.8454" stop-color="#EA5C80"/>
<stop offset="1" stop-color="#E95680"/>
</linearGradient>
<linearGradient id="paint13_linear" x1="364.03" y1="50.5673" x2="375.829" y2="57.5303" gradientUnits="userSpaceOnUse">
<stop stop-color="#F8CA7A"/>
<stop offset="1" stop-color="#E95680"/>
</linearGradient>
<linearGradient id="paint14_linear" x1="580.87" y1="144.111" x2="183.46" y2="144.111" gradientUnits="userSpaceOnUse">
<stop stop-color="#9A26F6"/>
<stop offset="1" stop-color="#DA4999"/>
</linearGradient>
<linearGradient id="paint15_linear" x1="584.917" y1="153.691" x2="187.507" y2="153.691" gradientUnits="userSpaceOnUse">
<stop stop-color="#9A26F6"/>
<stop offset="1" stop-color="#DA4999"/>
</linearGradient>
<linearGradient id="paint16_linear" x1="588.967" y1="163.272" x2="191.557" y2="163.272" gradientUnits="userSpaceOnUse">
<stop stop-color="#9A26F6"/>
<stop offset="1" stop-color="#DA4999"/>
</linearGradient>
<linearGradient id="paint17_linear" x1="35.7655" y1="246.473" x2="476.321" y2="246.473" gradientUnits="userSpaceOnUse">
<stop stop-color="#65C39D"/>
<stop offset="1" stop-color="#BBF061"/>
</linearGradient>
<linearGradient id="paint18_linear" x1="31.7187" y1="236.893" x2="472.274" y2="236.893" gradientUnits="userSpaceOnUse">
<stop stop-color="#65C39D"/>
<stop offset="1" stop-color="#BBF061"/>
</linearGradient>
<linearGradient id="paint19_linear" x1="27.6698" y1="227.312" x2="468.225" y2="227.312" gradientUnits="userSpaceOnUse">
<stop stop-color="#65C39D"/>
<stop offset="1" stop-color="#BBF061"/>
</linearGradient>
<linearGradient id="paint20_linear" x1="273.457" y1="323.335" x2="299.959" y2="323.335" gradientUnits="userSpaceOnUse">
<stop stop-color="#9A26F6"/>
<stop offset="1" stop-color="#DA4999"/>
</linearGradient>
<linearGradient id="paint21_linear" x1="239.809" y1="307.985" x2="262.72" y2="307.985" gradientUnits="userSpaceOnUse">
<stop stop-color="#9A26F6"/>
<stop offset="1" stop-color="#DA4999"/>
</linearGradient>
<linearGradient id="paint22_linear" x1="269.038" y1="82.3254" x2="286.195" y2="101.125" gradientUnits="userSpaceOnUse">
<stop stop-color="#F8CA7A"/>
<stop offset="1" stop-color="#E95680"/>
</linearGradient>
<linearGradient id="paint23_linear" x1="283.737" y1="169.318" x2="283.737" y2="311.517" gradientUnits="userSpaceOnUse">
<stop offset="0.0438132" stop-color="#5D38DB"/>
<stop offset="1" stop-color="#190776"/>
</linearGradient>
<linearGradient id="paint24_linear" x1="270.644" y1="62.6883" x2="289.589" y2="85.4256" gradientUnits="userSpaceOnUse">
<stop stop-color="#F8CA7A"/>
<stop offset="1" stop-color="#E95680"/>
</linearGradient>
<linearGradient id="paint25_linear" x1="258.721" y1="138.393" x2="314.175" y2="138.393" gradientUnits="userSpaceOnUse">
<stop stop-color="#9A26F6"/>
<stop offset="1" stop-color="#DA4999"/>
</linearGradient>
<linearGradient id="paint26_linear" x1="280.439" y1="143.291" x2="323.665" y2="143.291" gradientUnits="userSpaceOnUse">
<stop stop-color="#65C39D"/>
<stop offset="1" stop-color="#BBF061"/>
</linearGradient>
<linearGradient id="paint27_linear" x1="242.036" y1="147.905" x2="275.313" y2="147.905" gradientUnits="userSpaceOnUse">
<stop stop-color="#65C39D"/>
<stop offset="1" stop-color="#BBF061"/>
</linearGradient>
<linearGradient id="paint28_linear" x1="303.414" y1="145.706" x2="327.029" y2="170.524" gradientUnits="userSpaceOnUse">
<stop stop-color="#F8CA7A"/>
<stop offset="1" stop-color="#E95680"/>
</linearGradient>
<linearGradient id="paint29_linear" x1="302.945" y1="125.319" x2="331.027" y2="125.319" gradientUnits="userSpaceOnUse">
<stop stop-color="#65C39D"/>
<stop offset="1" stop-color="#BBF061"/>
</linearGradient>
<linearGradient id="paint30_linear" x1="300.358" y1="110.287" x2="309.984" y2="133.596" gradientUnits="userSpaceOnUse">
<stop offset="0.0438132" stop-color="#5D38DB"/>
<stop offset="1" stop-color="#190776"/>
</linearGradient>
<linearGradient id="paint31_linear" x1="307.017" y1="114.992" x2="306.133" y2="121.381" gradientUnits="userSpaceOnUse">
<stop stop-color="#86D1E9"/>
<stop offset="0.644733" stop-color="#001AFF"/>
</linearGradient>
<linearGradient id="paint32_linear" x1="271.173" y1="120.376" x2="293.869" y2="157.817" gradientUnits="userSpaceOnUse">
<stop stop-color="#F8CA7A"/>
<stop offset="1" stop-color="#E95680"/>
</linearGradient>
<linearGradient id="paint33_linear" x1="241.073" y1="136.474" x2="265.225" y2="136.474" gradientUnits="userSpaceOnUse">
<stop stop-color="#65C39D"/>
<stop offset="1" stop-color="#BBF061"/>
</linearGradient>
<linearGradient id="paint34_linear" x1="256.742" y1="69.1923" x2="297.642" y2="69.1923" gradientUnits="userSpaceOnUse">
<stop stop-color="#9A26F6"/>
<stop offset="1" stop-color="#DA4999"/>
</linearGradient>
<clipPath id="clip0">
<rect x="239.979" y="49" width="91.0986" height="285.149" fill="white"/>
</clipPath>
</defs>
</svg>
