<svg width="115" height="35" viewBox="0 0 115 35" fill="none" xmlns="http://www.w3.org/2000/svg">
<path d="M24 20.8474C24 28.5841 18.63 34.8505 12 34.8505C5.37 34.8505 -1.3594e-07 28.5841 -8.75619e-08 20.8474C-3.9184e-08 13.1106 5.37 6.84418 12 6.84418C18.63 6.84418 24 13.1106 24 20.8474ZM9.804 28.234C15.126 28.234 18.036 23.0879 18.036 18.6279C18.036 18.4808 18.036 18.3338 18.03 18.1938C18.594 17.7176 19.086 17.1225 19.476 16.4434C18.96 16.7094 18.402 16.8915 17.814 16.9755C18.414 16.5554 18.87 15.8972 19.086 15.1061C18.528 15.4911 17.91 15.7712 17.25 15.9252C16.722 15.2671 15.972 14.861 15.138 14.861C13.542 14.861 12.246 16.3733 12.246 18.2358C12.246 18.5018 12.27 18.7609 12.324 19.0059C9.918 18.8659 7.788 17.5216 6.36 15.4771C6.114 15.9743 5.97 16.5554 5.97 17.1715C5.97 18.3408 6.48 19.377 7.26 19.9792C6.786 19.9652 6.342 19.8111 5.952 19.5591C5.952 19.5731 5.952 19.5871 5.952 19.6011C5.952 21.2394 6.948 22.5978 8.274 22.9128C8.034 22.9898 7.776 23.0319 7.512 23.0319C7.326 23.0319 7.146 23.0109 6.966 22.9688C7.332 24.3131 8.4 25.2864 9.666 25.3144C8.676 26.2176 7.428 26.7567 6.072 26.7567C5.838 26.7567 5.61 26.7427 5.382 26.7077C6.648 27.6739 8.172 28.234 9.804 28.234Z" fill="white"/>
<path d="M33.0459 10.5171C33.0459 9.69808 33.3835 9.02848 34.0586 8.5083C34.7337 7.99365 35.6081 7.73633 36.6816 7.73633C37.7607 7.73633 38.6213 7.96322 39.2632 8.41699C39.9106 8.8763 40.2703 9.51823 40.3423 10.3428H38.4082C38.2477 9.64551 37.675 9.29688 36.6899 9.29688C36.214 9.29688 35.8239 9.39925 35.5195 9.604C35.2041 9.80876 35.0464 10.0744 35.0464 10.4009C35.0464 10.8879 35.4946 11.2337 36.3911 11.4385L37.9932 11.8037C38.8675 12.0029 39.5067 12.2962 39.9106 12.6836C40.3257 13.082 40.5332 13.6133 40.5332 14.2773C40.5332 15.1462 40.1707 15.849 39.4458 16.3857C38.7319 16.917 37.805 17.1826 36.665 17.1826C35.5306 17.1826 34.6258 16.9502 33.9507 16.4854C33.27 16.0205 32.891 15.3758 32.8135 14.5513H34.8472C35.0575 15.2651 35.68 15.6221 36.7148 15.6221C37.235 15.6221 37.6584 15.5169 37.9849 15.3066C38.3114 15.1019 38.4746 14.8307 38.4746 14.4932C38.4746 13.9896 38.0568 13.6465 37.2212 13.4639L35.6108 13.0903C33.9009 12.6974 33.0459 11.8397 33.0459 10.5171ZM44.8463 5.75244V7.97705H46.8385V9.62061H44.8463V14.0781C44.8463 14.9414 45.2614 15.373 46.0915 15.373C46.2796 15.373 46.5065 15.3592 46.7721 15.3315V16.9419C46.4401 17.0083 46.0859 17.0415 45.7096 17.0415C44.6693 17.0415 43.9222 16.8506 43.4684 16.4688C43.0202 16.0869 42.7961 15.4561 42.7961 14.5762V9.62061H41.3185V7.97705H42.7961V5.75244H44.8463ZM52.2723 15.4561C52.9917 15.4561 53.5451 15.1932 53.9324 14.6675C54.3253 14.1473 54.5218 13.4113 54.5218 12.4595C54.5218 11.5132 54.3253 10.7772 53.9324 10.2515C53.5395 9.72575 52.9862 9.46289 52.2723 9.46289C51.5529 9.46289 50.9967 9.72575 50.6038 10.2515C50.2109 10.7772 50.0145 11.5132 50.0145 12.4595C50.0145 13.4113 50.2109 14.1473 50.6038 14.6675C50.9967 15.1932 51.5529 15.4561 52.2723 15.4561ZM52.2723 17.1826C50.911 17.1826 49.8429 16.7648 49.0682 15.9292C48.2934 15.0881 47.9061 13.9315 47.9061 12.4595C47.9061 10.9985 48.2962 9.84473 49.0765 8.99805C49.8568 8.1569 50.922 7.73633 52.2723 7.73633C53.6281 7.73633 54.6933 8.1569 55.4681 8.99805C56.2484 9.83919 56.6385 10.993 56.6385 12.4595C56.6385 13.9315 56.2511 15.0881 55.4764 15.9292C54.6961 16.7648 53.6281 17.1826 52.2723 17.1826ZM64.1889 10.9736C64.0893 10.5143 63.8735 10.1519 63.5415 9.88623C63.1873 9.604 62.7363 9.46289 62.1885 9.46289C61.4801 9.46289 60.9295 9.72298 60.5366 10.2432C60.1382 10.7633 59.9389 11.4938 59.9389 12.4346C59.9389 13.3864 60.1382 14.1279 60.5366 14.6592C60.935 15.1904 61.4857 15.4561 62.1885 15.4561C63.3008 15.4561 63.9676 14.9718 64.1889 14.0034H66.1479C66.0317 14.9718 65.6333 15.7383 64.9526 16.3027C64.2443 16.8893 63.3257 17.1826 62.1968 17.1826C60.8299 17.1826 59.7646 16.7648 59.001 15.9292C58.2373 15.0936 57.8554 13.9287 57.8554 12.4346C57.8554 10.957 58.2373 9.80599 59.001 8.98145C59.7646 8.15137 60.8271 7.73633 62.1885 7.73633C63.3284 7.73633 64.2526 8.03792 64.9609 8.64111C65.6416 9.21663 66.0373 9.99414 66.1479 10.9736H64.1889ZM73.3414 7.91895H75.7321L72.1129 11.812L75.9811 17H73.4909L70.5773 13.1069L69.8468 13.8374V17H67.7882V4.40771H69.8468V11.6211H69.9879L73.3414 7.91895ZM75.8616 19.4736V17.8882H83.6976V19.4736H75.8616ZM87.4213 17.1494C86.2703 17.1494 85.36 16.7261 84.6904 15.8794C84.0208 15.0382 83.686 13.8955 83.686 12.4512C83.686 11.0179 84.0236 9.87793 84.6987 9.03125C85.3683 8.1901 86.2758 7.76953 87.4213 7.76953C88.0411 7.76953 88.5973 7.91064 89.0898 8.19287C89.5713 8.4751 89.9337 8.86523 90.1772 9.36328H90.3183V4.40771H92.3769V17H90.3847V15.564H90.2436C89.6958 16.6209 88.755 17.1494 87.4213 17.1494ZM88.0605 9.521C87.3577 9.521 86.8043 9.78109 86.4004 10.3013C85.9964 10.827 85.7944 11.5464 85.7944 12.4595C85.7944 13.3781 85.9964 14.0975 86.4004 14.6177C86.7988 15.1379 87.3522 15.3979 88.0605 15.3979C88.7688 15.3979 89.3278 15.1351 89.7373 14.6094C90.1412 14.0892 90.3432 13.3726 90.3432 12.4595C90.3432 11.5519 90.1385 10.8353 89.729 10.3096C89.3195 9.78385 88.7633 9.521 88.0605 9.521ZM98.483 15.4561C99.2024 15.4561 99.7558 15.1932 100.143 14.6675C100.536 14.1473 100.733 13.4113 100.733 12.4595C100.733 11.5132 100.536 10.7772 100.143 10.2515C99.7503 9.72575 99.1969 9.46289 98.483 9.46289C97.7636 9.46289 97.2075 9.72575 96.8146 10.2515C96.4217 10.7772 96.2252 11.5132 96.2252 12.4595C96.2252 13.4113 96.4217 14.1473 96.8146 14.6675C97.2075 15.1932 97.7636 15.4561 98.483 15.4561ZM98.483 17.1826C97.1217 17.1826 96.0537 16.7648 95.2789 15.9292C94.5042 15.0881 94.1168 13.9315 94.1168 12.4595C94.1168 10.9985 94.507 9.84473 95.2872 8.99805C96.0675 8.1569 97.1328 7.73633 98.483 7.73633C99.8388 7.73633 100.904 8.1569 101.679 8.99805C102.459 9.83919 102.849 10.993 102.849 12.4595C102.849 13.9315 102.462 15.0881 101.687 15.9292C100.907 16.7648 99.8388 17.1826 98.483 17.1826ZM110.715 12.3599C110.715 11.491 110.51 10.8021 110.101 10.293C109.691 9.77832 109.13 9.521 108.416 9.521C107.707 9.521 107.154 9.77832 106.756 10.293C106.363 10.7965 106.166 11.4855 106.166 12.3599C106.166 13.2342 106.363 13.9232 106.756 14.4268C107.149 14.9359 107.702 15.1904 108.416 15.1904C109.13 15.1904 109.691 14.9359 110.101 14.4268C110.51 13.9176 110.715 13.2287 110.715 12.3599ZM108.416 20.4531C107.259 20.4531 106.318 20.2152 105.594 19.7393C104.874 19.2744 104.473 18.6491 104.39 17.8633H106.457C106.523 18.1787 106.731 18.4277 107.079 18.6104C107.434 18.793 107.89 18.8843 108.449 18.8843C109.152 18.8843 109.7 18.7266 110.093 18.4111C110.485 18.0957 110.682 17.653 110.682 17.083V15.3647H110.541C110.004 16.3664 109.08 16.8672 107.768 16.8672C106.628 16.8672 105.724 16.4577 105.054 15.6387C104.384 14.8252 104.05 13.7323 104.05 12.3599C104.05 10.9653 104.384 9.85303 105.054 9.02295C105.735 8.18734 106.651 7.76953 107.802 7.76953C108.421 7.76953 108.983 7.91341 109.487 8.20117C109.99 8.48893 110.366 8.87907 110.616 9.37158H110.757V7.91895H112.741V17.0332C112.741 18.0846 112.35 18.9175 111.57 19.5317C110.79 20.146 109.738 20.4531 108.416 20.4531Z" fill="white"/>
</svg>
