<svg width="345" height="274" viewBox="0 0 345 274" fill="none" xmlns="http://www.w3.org/2000/svg">
<path opacity="0.2" d="M89.4948 164.157H72.4004V244.059H89.4948V164.157Z" fill="url(#paint0_linear)"/>
<path d="M284.109 164.157H366.952V267.561C366.952 270.875 364.265 273.561 360.952 273.561H288.272C285.987 273.561 284.109 271.032 284.109 267.953V164.157Z" fill="url(#paint1_linear)"/>
<path d="M374.887 170.304L313.695 170.304L313.695 154.323L374.887 154.323C376.666 154.323 378.127 156.134 378.127 158.338L378.127 166.289C378.127 168.493 376.666 170.304 374.887 170.304Z" fill="url(#paint2_linear)"/>
<path d="M192.18 100.236H314.352V266.584C314.352 270.415 311.63 273.561 308.315 273.561H192.062V100.236H192.18Z" fill="url(#paint3_linear)"/>
<path opacity="0.2" d="M223.104 99.8518H202.904V234.482H223.104V99.8518Z" fill="url(#paint4_linear)"/>
<path d="M11.9131 128.509H131.574V273.561H17.9256C14.6246 273.561 11.9131 270.208 11.9131 266.126V128.509Z" fill="url(#paint5_linear)"/>
<path opacity="0.2" d="M121.508 128.754H103.316V234.482H121.508V128.754Z" fill="url(#paint6_linear)"/>
<path d="M217.044 73.1926H109.218V273.561H217.044V73.1926Z" fill="url(#paint7_linear)"/>
<path d="M5.56797 116.216H109.22V137.114H5.56797C2.5542 137.114 0.0786133 134.746 0.0786133 131.864V121.467C0.0786133 118.584 2.5542 116.216 5.56797 116.216Z" fill="url(#paint8_linear)"/>
<path d="M217.044 89.1727H320.696C323.71 89.1727 326.186 91.6797 326.186 94.7316V105.74C326.186 108.792 323.71 111.299 320.696 111.299H217.044V89.1727Z" fill="url(#paint9_linear)"/>
<path d="M109.341 62.1293H217.076C220.383 62.1293 223.1 64.5733 223.1 67.5485V78.2807C223.1 81.2559 220.383 83.6999 217.076 83.6999H109.341C106.033 83.6999 103.316 81.2559 103.316 78.2807V67.5485C103.316 64.5733 106.033 62.1293 109.341 62.1293Z" fill="url(#paint10_linear)"/>
<path opacity="0.1" d="M139.227 110.584H133.202C129.895 110.584 127.178 108.14 127.178 105.164C127.178 102.189 129.895 99.7452 133.202 99.7452H139.227C142.535 99.7452 145.252 102.189 145.252 105.164C145.252 108.14 142.535 110.584 139.227 110.584Z" fill="white"/>
<path opacity="0.1" d="M193.094 110.584H163.207C159.9 110.584 157.183 108.14 157.183 105.164C157.183 102.189 159.9 99.7452 163.207 99.7452H193.094C196.402 99.7452 199.119 102.189 199.119 105.164C199.119 108.14 196.402 110.584 193.094 110.584Z" fill="white"/>
<path d="M251.609 21.3746C251.609 21.3746 249.357 28.3432 250.639 30.4499C251.921 32.5567 248.387 37.0944 242.566 34.9876C236.744 32.8808 236.433 30.4499 236.433 30.4499C236.433 30.4499 238.685 27.1115 239.343 20.1754L251.609 21.3746Z" fill="url(#paint11_linear)"/>
<path d="M281.201 89.5693C281.201 89.5693 292.844 95.0146 287.681 102.275C284.666 106.488 278.949 114.689 274.653 120.814C271.084 125.936 268.312 131.543 266.51 137.442L265.679 140.067L262.456 143.697L255.665 136.437C255.665 136.437 265.679 119.194 265.679 115.855C265.679 112.517 273.752 101.951 273.752 101.951L265.679 97.1213C265.679 97.1537 274.757 87.4626 281.201 89.5693Z" fill="#A0616A"/>
<path d="M243.364 108.336C243.364 108.336 243.052 116.795 242.706 120.134C242.429 122.889 245.027 130.57 244.126 139.127C243.572 144.67 243.641 150.244 244.334 155.755L245.616 166.742L235.915 167.65L232.692 142.855C232.692 142.855 230.752 125.32 231.722 119.55L231.41 107.461C231.41 107.428 238.513 104.997 243.364 108.336Z" fill="#A0616A"/>
<path d="M246.932 25.1668C252.29 25.1668 256.634 21.1037 256.634 16.0915C256.634 11.0793 252.29 7.01614 246.932 7.01614C241.574 7.01614 237.23 11.0793 237.23 16.0915C237.23 21.1037 241.574 25.1668 246.932 25.1668Z" fill="url(#paint12_linear)"/>
<path d="M249.358 31.9732C249.358 31.9732 238.408 34.6634 236.919 29.5423C236.919 29.5423 223.475 31.9732 221.222 40.141C218.97 48.3088 226.732 67.9829 226.732 68.5663C226.732 69.1497 220.252 72.8123 223.163 74.6273C226.073 76.4424 228.672 74.3356 227.355 76.7341C226.039 79.1326 223.787 79.7484 225.727 80.3642C227.667 80.9801 239.309 71.5806 248.353 74.0115C257.396 76.4424 261.935 74.6273 261.935 74.6273L265.989 41.794C266.301 39.2335 265.227 36.7054 263.113 35.0524C261.104 33.4966 258.401 31.8112 255.802 31.3574C250.64 30.4499 250.397 29.9637 250.397 29.9637L249.358 31.9732Z" fill="url(#paint13_linear)"/>
<path fill-rule="evenodd" clip-rule="evenodd" d="M279.657 86.1531C273.074 80.5565 260.687 73.104 260.687 73.104L245.511 70.349L227.389 76.7017C224.825 77.6093 226.107 90.3148 226.107 90.3148L227.731 98.3976L227.702 98.3856C227.89 99.2974 228.484 106.972 229.238 116.719C230.709 135.73 232.791 162.626 233.661 162.626C234.978 162.626 245.615 160.163 245.65 158.25C245.685 156.338 244.299 105.257 244.299 105.257L244.293 105.254C244.284 104.722 244.274 104.178 244.265 103.631C244.23 101.605 244.194 99.5458 244.194 97.8992C244.194 93.0374 248.387 90.0231 248.387 90.0231C248.387 90.0231 258.747 96.3758 260.687 96.9916C262.354 97.5208 268.321 99.606 269.966 100.182L270.389 100.33C270.389 100.33 264.568 113.49 262.801 118.578C261.866 121.204 257.327 133.229 257.327 133.229L266.543 137.442C266.543 137.442 290.347 101.627 290.313 98.3857C290.313 97.2808 286.073 92.688 282.947 89.4516C282.296 88.565 281.239 87.5167 279.929 86.3858C279.765 86.2229 279.675 86.134 279.675 86.134L279.657 86.1531Z" fill="url(#paint14_linear)"/>
<path d="M259.717 84.902C259.717 84.902 256.807 100.33 252.926 98.2233C249.045 96.1165 253.896 84.902 253.896 84.902H259.717Z" fill="#A0616A"/>
<path d="M246.205 86.8792C246.205 86.8792 251.264 101.821 246.76 101.627C242.255 101.432 241.042 89.4073 241.042 89.4073L246.205 86.8792Z" fill="#A0616A"/>
<path d="M264.083 139.484C264.083 139.484 266.335 137.053 267.651 140.391C268.968 143.73 272.502 147.943 272.502 147.943C272.502 147.943 280.264 156.111 274.755 156.403C269.245 156.694 261.484 149.142 261.484 149.142L252.44 141.266C252.44 141.266 255.455 134.427 256.841 134.363C258.227 134.298 257.915 142.498 264.083 139.484Z" fill="url(#paint15_linear)"/>
<path d="M243.052 164.603C243.052 164.603 245.339 165.219 245.165 162.658C245.165 162.658 253.412 166.742 251.125 169.756C251.09 169.789 251.09 169.821 251.056 169.854C247.868 174.067 243.502 177.406 238.443 179.512C235.949 180.55 233.731 181.23 233.35 180.614C232.38 179.091 232.38 176.077 233.038 174.878C233.696 173.678 236.919 171.539 235.949 169.724C234.978 167.909 236.26 163.08 237.889 163.08C239.517 163.08 243.052 164.603 243.052 164.603Z" fill="url(#paint16_linear)"/>
<path d="M226.731 39.8171C226.731 39.8171 234.493 59.4912 233.835 61.8896C233.176 64.2881 233.835 64.6122 234.805 65.2281C235.775 65.8439 238.374 72.1966 238.374 72.1966C238.374 72.1966 240.002 75.8268 241.284 76.7343C242.566 77.6418 242.566 80.0727 242.566 80.0727C242.566 80.0727 245.788 83.087 245.165 83.7029C244.506 84.3187 244.506 85.2262 245.823 86.1337C247.14 87.0413 248.422 88.2405 247.764 88.5646C247.105 88.8888 242.601 92.1948 241.284 91.9031C240.002 91.6114 241.942 90.3797 240.314 89.7963C238.685 89.2129 237.715 88.2729 238.374 87.9812C239.032 87.6895 240.972 87.6895 239.032 87.0737C237.092 86.4579 230.3 82.536 228.048 77.7066C225.796 72.8773 214.916 43.5121 221.465 39.3958C221.465 39.3958 224.133 36.187 226.731 39.8171Z" fill="url(#paint17_linear)"/>
<path d="M262.628 36.5111L262.766 36.5759C265.261 37.5483 267.063 39.5902 267.617 42.0535C268.31 45.2299 269.003 49.8 268.483 54.0783C267.513 61.6303 266.855 64.9688 265.573 67.3996C264.291 69.8305 263.944 68.923 264.291 70.7381C264.637 72.5531 266.231 71.0298 264.603 73.4607C262.974 75.8916 262.004 75.2757 262.662 76.475C263.321 77.6742 264.291 77.6742 262.974 79.1976C261.692 80.7209 261.692 81.3044 261.346 81.9202C260.999 82.536 260.063 87.0737 260.063 87.0737C260.063 87.0737 254.901 85.5503 251.99 86.1662C251.99 86.1662 254.589 81.9202 253.931 81.0127C253.272 80.1051 252.302 79.8134 253.272 78.9059C254.242 77.9983 255.871 78.2901 254.242 77.3825C252.614 76.475 255.524 67.1079 255.524 67.1079L262.628 36.5111Z" fill="url(#paint18_linear)"/>
<path d="M257.742 130.797C257.153 130.862 256.495 132.872 257.292 133.228C258.089 133.585 266.37 137.96 267.167 137.733C267.929 137.539 269.176 136.178 268.691 135.043C268.379 134.395 260.618 130.473 257.742 130.797Z" fill="url(#paint19_linear)"/>
<path d="M232.518 160.033C232.553 160.422 232.38 162.982 233.627 162.626C234.874 162.269 246.343 160.681 246.239 159.385C246.101 157.796 246.447 156.046 246.031 156.079C245.65 156.143 232.483 159.644 232.518 160.033Z" fill="url(#paint20_linear)"/>
<path d="M248.526 3.15907C249.288 1.89501 250.743 1.11712 252.303 1.24677C253.862 1.50606 255.144 2.57566 255.594 4.00178C255.767 4.5852 255.871 5.20103 256.218 5.71962C256.738 6.46509 257.673 6.69197 258.401 7.21057C259.232 7.95604 259.787 8.99322 259.821 10.1276C259.856 11.2621 259.683 12.3641 259.302 13.4337C259.128 13.8874 258.99 14.3412 258.886 14.795C258.782 15.2487 258.782 15.7025 258.713 16.1563C258.539 17.3555 257.812 18.3927 256.807 19.1057C256.668 19.2354 256.495 19.2678 256.287 19.2678C255.975 19.2354 255.767 18.8789 255.629 18.5547C254.97 16.7721 255.144 14.5681 253.896 13.142C253.377 12.5585 252.649 12.1048 251.887 11.7806C251.575 11.6186 251.228 11.4889 250.847 11.3917C250.328 11.4241 249.808 11.5862 249.392 11.8779C248.491 12.4289 247.521 12.8502 246.481 13.0771C245.442 13.2716 244.333 13.0771 243.502 12.4937C242.913 12.0399 242.531 11.3593 241.838 11.0352C241.215 10.7111 240.556 10.7111 239.863 10.4518C238.408 9.86834 237.715 8.28016 238.339 6.91886C238.443 6.72439 238.547 6.4975 238.685 6.33544C239.101 5.88168 239.725 5.58997 240.106 5.07138C240.591 4.39073 240.556 3.48319 240.764 2.64048C241.042 1.6033 241.838 0.760589 242.913 0.339234C243.952 0.0151146 245.095 0.241998 245.892 0.922649C246.308 1.24677 246.655 1.70054 247.036 2.08948C247.833 2.83495 249.045 3.12666 250.12 2.86737" fill="url(#paint21_linear)"/>
<path d="M245.234 48.6008H253.377L253.931 44.5169H241.18L238.616 61.4035H243.225L244.125 55.6018H251.159L251.714 51.6799H244.888L245.234 48.6008Z" fill="url(#paint22_linear)"/>
<defs>
<linearGradient id="paint0_linear" x1="90.2433" y1="203.56" x2="71.4044" y2="205.603" gradientUnits="userSpaceOnUse">
<stop stop-color="#F8CA7A"/>
<stop offset="0.1618" stop-color="#F4AD7B"/>
<stop offset="0.411" stop-color="#EF887D"/>
<stop offset="0.6419" stop-color="#EC6C7F"/>
<stop offset="0.8454" stop-color="#EA5C80"/>
<stop offset="1" stop-color="#E95680"/>
</linearGradient>
<linearGradient id="paint1_linear" x1="274.843" y1="218.852" x2="366.937" y2="218.852" gradientUnits="userSpaceOnUse">
<stop stop-color="#65C39D"/>
<stop offset="1" stop-color="#BBF061"/>
</linearGradient>
<linearGradient id="paint2_linear" x1="349.856" y1="170.304" x2="333.912" y2="153.248" gradientUnits="userSpaceOnUse">
<stop stop-color="#65C39D"/>
<stop offset="1" stop-color="#BBF061"/>
</linearGradient>
<linearGradient id="paint3_linear" x1="197.063" y1="102.246" x2="339.989" y2="263.496" gradientUnits="userSpaceOnUse">
<stop stop-color="#3B6AF6"/>
<stop offset="0.1919" stop-color="#4A8EF8"/>
<stop offset="0.4321" stop-color="#5BB3FA"/>
<stop offset="0.6547" stop-color="#66CFFB"/>
<stop offset="0.851" stop-color="#6DDFFC"/>
<stop offset="1" stop-color="#70E5FC"/>
</linearGradient>
<linearGradient id="paint4_linear" x1="226.213" y1="167.169" x2="200.415" y2="167.169" gradientUnits="userSpaceOnUse">
<stop stop-color="#3B6AF6"/>
<stop offset="0.1919" stop-color="#4A8EF8"/>
<stop offset="0.4321" stop-color="#5BB3FA"/>
<stop offset="0.6547" stop-color="#66CFFB"/>
<stop offset="0.851" stop-color="#6DDFFC"/>
<stop offset="1" stop-color="#70E5FC"/>
</linearGradient>
<linearGradient id="paint5_linear" x1="155.743" y1="292.769" x2="-8.23919" y2="172.908" gradientUnits="userSpaceOnUse">
<stop stop-color="#F8CA7A"/>
<stop offset="0.1618" stop-color="#F4AD7B"/>
<stop offset="0.411" stop-color="#EF887D"/>
<stop offset="0.6419" stop-color="#EC6C7F"/>
<stop offset="0.8454" stop-color="#EA5C80"/>
<stop offset="1" stop-color="#E95680"/>
</linearGradient>
<linearGradient id="paint6_linear" x1="122.305" y1="180.893" x2="102.174" y2="182.648" gradientUnits="userSpaceOnUse">
<stop stop-color="#F8CA7A"/>
<stop offset="0.1618" stop-color="#F4AD7B"/>
<stop offset="0.411" stop-color="#EF887D"/>
<stop offset="0.6419" stop-color="#EC6C7F"/>
<stop offset="0.8454" stop-color="#EA5C80"/>
<stop offset="1" stop-color="#E95680"/>
</linearGradient>
<linearGradient id="paint7_linear" x1="111.577" y1="73.9906" x2="239.768" y2="273.225" gradientUnits="userSpaceOnUse">
<stop stop-color="#9A26F6"/>
<stop offset="0.0378898" stop-color="#9E28F0"/>
<stop offset="0.3241" stop-color="#B836CB"/>
<stop offset="0.589" stop-color="#CB41AF"/>
<stop offset="0.8226" stop-color="#D6479F"/>
<stop offset="1" stop-color="#DA4999"/>
</linearGradient>
<linearGradient id="paint8_linear" x1="54.627" y1="113.043" x2="54.627" y2="144.821" gradientUnits="userSpaceOnUse">
<stop stop-color="#F8CA7A"/>
<stop offset="0.1618" stop-color="#F4AD7B"/>
<stop offset="0.411" stop-color="#EF887D"/>
<stop offset="0.6419" stop-color="#EC6C7F"/>
<stop offset="0.8454" stop-color="#EA5C80"/>
<stop offset="1" stop-color="#E95680"/>
</linearGradient>
<linearGradient id="paint9_linear" x1="271.573" y1="112.204" x2="271.573" y2="88.8575" gradientUnits="userSpaceOnUse">
<stop stop-color="#3B6AF6"/>
<stop offset="0.1919" stop-color="#4A8EF8"/>
<stop offset="0.4321" stop-color="#5BB3FA"/>
<stop offset="0.6547" stop-color="#66CFFB"/>
<stop offset="0.851" stop-color="#6DDFFC"/>
<stop offset="1" stop-color="#70E5FC"/>
</linearGradient>
<linearGradient id="paint10_linear" x1="163.173" y1="83.4809" x2="163.173" y2="61.7879" gradientUnits="userSpaceOnUse">
<stop stop-color="#9A26F6"/>
<stop offset="0.0378898" stop-color="#9E28F0"/>
<stop offset="0.3241" stop-color="#B836CB"/>
<stop offset="0.589" stop-color="#CB41AF"/>
<stop offset="0.8226" stop-color="#D6479F"/>
<stop offset="1" stop-color="#DA4999"/>
</linearGradient>
<linearGradient id="paint11_linear" x1="240.7" y1="21.0604" x2="250.058" y2="32.1597" gradientUnits="userSpaceOnUse">
<stop stop-color="#F8CA7A"/>
<stop offset="1" stop-color="#E95680"/>
</linearGradient>
<linearGradient id="paint12_linear" x1="242.687" y1="8.06217" x2="253.569" y2="22.0244" gradientUnits="userSpaceOnUse">
<stop stop-color="#F8CA7A"/>
<stop offset="1" stop-color="#E95680"/>
</linearGradient>
<linearGradient id="paint13_linear" x1="215.753" y1="54.9644" x2="266.034" y2="54.9644" gradientUnits="userSpaceOnUse">
<stop stop-color="#65C39D"/>
<stop offset="1" stop-color="#BBF061"/>
</linearGradient>
<linearGradient id="paint14_linear" x1="225.367" y1="116.594" x2="290.075" y2="116.594" gradientUnits="userSpaceOnUse">
<stop stop-color="#9A26F6"/>
<stop offset="1" stop-color="#DA4999"/>
</linearGradient>
<linearGradient id="paint15_linear" x1="264.101" y1="134.327" x2="264.101" y2="155.624" gradientUnits="userSpaceOnUse">
<stop offset="0.0438132" stop-color="#5D38DB"/>
<stop offset="1" stop-color="#190776"/>
</linearGradient>
<linearGradient id="paint16_linear" x1="241.674" y1="162.629" x2="241.674" y2="180.199" gradientUnits="userSpaceOnUse">
<stop offset="0.0438132" stop-color="#5D38DB"/>
<stop offset="1" stop-color="#190776"/>
</linearGradient>
<linearGradient id="paint17_linear" x1="216.201" y1="65.0004" x2="247.937" y2="65.0004" gradientUnits="userSpaceOnUse">
<stop stop-color="#65C39D"/>
<stop offset="1" stop-color="#BBF061"/>
</linearGradient>
<linearGradient id="paint18_linear" x1="250.125" y1="61.789" x2="268.662" y2="61.789" gradientUnits="userSpaceOnUse">
<stop stop-color="#65C39D"/>
<stop offset="1" stop-color="#BBF061"/>
</linearGradient>
<linearGradient id="paint19_linear" x1="255.595" y1="134.26" x2="268.798" y2="134.26" gradientUnits="userSpaceOnUse">
<stop stop-color="#65C39D"/>
<stop offset="1" stop-color="#BBF061"/>
</linearGradient>
<linearGradient id="paint20_linear" x1="230.983" y1="159.369" x2="246.242" y2="159.369" gradientUnits="userSpaceOnUse">
<stop stop-color="#65C39D"/>
<stop offset="1" stop-color="#BBF061"/>
</linearGradient>
<linearGradient id="paint21_linear" x1="235.68" y1="9.72944" x2="259.822" y2="9.72944" gradientUnits="userSpaceOnUse">
<stop stop-color="#65C39D"/>
<stop offset="1" stop-color="#BBF061"/>
</linearGradient>
<linearGradient id="paint22_linear" x1="246.264" y1="61.4165" x2="246.264" y2="45.1237" gradientUnits="userSpaceOnUse">
<stop offset="0.0438132" stop-color="#5D38DB"/>
<stop offset="1" stop-color="#090776"/>
</linearGradient>
</defs>
</svg>
