<svg width="1440" height="624" viewBox="0 0 1440 624" fill="none" xmlns="http://www.w3.org/2000/svg">
<g style="mix-blend-mode:screen" opacity="1">
<path d="M72.5891 88.2818C104.244 31.2962 154.891 -25.6895 224.531 12.3009C237.193 18.6327 249.855 31.2962 262.516 50.2914C325.825 126.272 370.142 233.912 414.458 328.888C439.782 379.542 471.436 449.191 515.753 474.518C515.753 474.518 522.084 474.518 522.084 480.85C572.731 499.845 604.385 423.864 655.033 455.523C693.018 480.85 718.342 556.831 756.327 601.153C768.989 613.816 781.651 626.48 787.982 632.812C819.636 651.807 844.96 645.475 870.284 632.812C908.269 607.485 927.262 537.835 958.916 493.513C990.571 430.196 1053.88 404.869 1117.19 442.859C1136.18 455.523 1155.17 468.186 1180.5 493.513C1237.48 556.831 1275.46 658.139 1313.45 746.783C1345.1 829.096 1383.09 911.408 1427.4 987.389C1478.05 1069.7 1541.36 1171.01 1611 1209L-130 195.921C-35.0364 252.907 21.9418 170.594 72.5891 88.2818Z" fill="url(#paint0_linear)"/>
</g>
<defs>
<linearGradient id="paint0_linear" x1="1031.73" y1="362.191" x2="740.296" y2="837.604" gradientUnits="userSpaceOnUse">
<stop stop-color="#5D38DB"/>
<stop offset="1" stop-color="#090776" stop-opacity="0"/>
</linearGradient>
</defs>
</svg>
